<?xml version="1.0" encoding="UTF-8"?>
<svg version="1.1" xmlns="http://www.w3.org/2000/svg" width="500" height="154">
<path d="M0 0 C7.66244331 7.24825718 7.64337388 18.12514582 8 28 C8 29.32 8 30.64 8 32 C2.06 32 -3.88 32 -10 32 C-10.375 24.75 -10.375 24.75 -10.47802734 22.48730469 C-10.69039401 18.91454782 -10.89830456 15.96449672 -13 13 C-15.40882687 12.00156224 -15.40882687 12.00156224 -18 12 C-21.09532894 13.61423342 -21.09532894 13.61423342 -21.6171875 15.91796875 C-22.34518885 22.32658669 -21.56064836 26.55979376 -17.58984375 31.89453125 C-14.3583881 35.76769441 -10.81202419 39.07936873 -7 42.375 C-0.22567933 48.34506342 3.98138649 54.96277298 8 63 C8.33 41.22 8.66 19.44 9 -3 C15.27 -3 21.54 -3 28 -3 C28.029729 0.58016968 28.029729 0.58016968 28.06005859 4.23266602 C28.12706115 12.13168068 28.20469922 20.03056527 28.28752708 27.92942905 C28.33740482 32.71700218 28.38373551 37.50455416 28.421875 42.29223633 C28.45883559 46.9153691 28.50522454 51.53832115 28.55806351 56.16129875 C28.5765503 57.92223874 28.59167921 59.68321738 28.60334396 61.44421577 C28.62030459 63.91685491 28.64936247 66.38908529 28.68115234 68.86157227 C28.68331253 69.58446442 28.68547272 70.30735657 28.68769836 71.05215454 C28.76441723 75.74425558 29.55322517 79.58419455 31 84 C34.35458155 84.76522801 34.35458155 84.76522801 38 85 C40.14860073 83.49597949 40.83552492 82.32895015 42 80 C42.12237754 77.37676082 42.18567754 74.77831268 42.20532227 72.15380859 C42.21522186 71.34397018 42.22512146 70.53413177 42.23532104 69.69975281 C42.26697399 67.01601104 42.29170844 64.33225155 42.31640625 61.6484375 C42.3369725 59.7904107 42.35796889 57.93238861 42.37937927 56.07437134 C42.4346339 51.17862765 42.48402821 46.28284149 42.53222656 41.38702393 C42.58241685 36.39339407 42.6381158 31.39982605 42.69335938 26.40625 C42.80098244 16.60421747 42.90190929 6.80213256 43 -3 C49.27 -3 55.54 -3 62 -3 C62 30.99 62 64.98 62 100 C55.73 100 49.46 100 43 100 C42.67 99.01 42.34 98.02 42 97 C41.2265625 97.4021875 41.2265625 97.4021875 40.4375 97.8125 C39.633125 98.204375 38.82875 98.59625 38 99 C36.906875 99.53625 35.81375 100.0725 34.6875 100.625 C29.30891932 102.63057246 25.73771364 102.58905547 20.3125 100.75 C14.399392 97.62609389 12.21458756 94.31157456 10 88 C9.8125 85.0625 9.8125 85.0625 10 83 C9.34 83 8.68 83 8 83 C7.95875 83.99 7.9175 84.98 7.875 86 C7.1473316 90.97240075 4.51773754 94.51374109 1 98 C-5.88901924 102.40594417 -14.7626964 103.05835556 -22.62890625 101.46875 C-29.17482748 99.67374328 -33.166638 97.56670679 -37.1875 91.9375 C-41.70048171 83.33177374 -41.20298469 73.43878808 -41 64 C-35.06 64 -29.12 64 -23 64 C-22.87625 65.98 -22.7525 67.96 -22.625 70 C-22.23015429 75.2359974 -21.47905387 79.97121685 -20 85 C-15.93777969 85.38671866 -15.93777969 85.38671866 -12.328125 83.84375 C-9.4960594 79.91217658 -10.51107809 74.60057848 -11 70 C-12.75424267 62.1700876 -19.96053572 56.70049044 -25.5390625 51.39404297 C-35.1385312 42.23412213 -41.02376401 34.6103948 -41.375 21 C-41.20475317 13.82641751 -39.99727896 8.32879827 -36.3125 2.1875 C-26.70652458 -6.89923351 -10.75834622 -7.52064487 0 0 Z " fill="#FDFEFE" transform="translate(180,34)"/>
<path d="M0 0 C6.08402248 5.1225967 7.94825837 11.27823877 9 19 C9.21260264 23.70088052 9.14131399 28.28953365 9 33 C3.39 33 -2.22 33 -8 33 C-8.8125 24.6875 -8.8125 24.6875 -9.04614258 22.08081055 C-9.15671997 21.05661011 -9.15671997 21.05661011 -9.26953125 20.01171875 C-9.33760986 19.31522217 -9.40568848 18.61872559 -9.47583008 17.90112305 C-10.13542791 15.50881364 -11.04542679 14.50294946 -13 13 C-15.59117313 13.00156224 -15.59117313 13.00156224 -18 14 C-20.49040016 17.73560024 -20.51765 20.67563151 -20 25 C-17.40850841 32.6449002 -13.03733436 37.05371433 -7.08203125 42.19140625 C-0.0117151 48.33316306 5.97760636 54.93281907 9 64 C9.01458252 62.68918457 9.02916504 61.37836914 9.04418945 60.02783203 C9.10252455 55.12603606 9.17975352 50.22468265 9.26245117 45.32324219 C9.29553574 43.2090579 9.32361796 41.09478877 9.34643555 38.98046875 C9.38028608 35.92671841 9.43261545 32.87373406 9.48828125 29.8203125 C9.49467117 28.88760529 9.5010611 27.95489807 9.50764465 26.993927 C9.68909754 18.7419982 11.10998584 10.17828654 16.37109375 3.53515625 C22.65374918 -2.3859075 30.58855335 -4.18050315 39 -4 C45.68676937 -3.61365333 50.44924096 -1.88777843 55.30859375 2.8046875 C61.00170615 10.19390036 62.13769568 19.88077625 62.09765625 28.9296875 C62.09515869 30.09226074 62.09266113 31.25483398 62.09008789 32.45263672 C62.08098389 33.9120166 62.07187988 35.37139648 62.0625 36.875 C62.041875 41.53625 62.02125 46.1975 62 51 C51.11 51 40.22 51 29 51 C29.12375 55.49625 29.2475 59.9925 29.375 64.625 C29.40899902 66.03217285 29.44299805 67.4393457 29.47802734 68.88916016 C29.53144287 70.57211182 29.53144287 70.57211182 29.5859375 72.2890625 C29.6173584 73.43068848 29.6487793 74.57231445 29.68115234 75.74853516 C30.22045046 81.31777484 30.22045046 81.31777484 33 86 C34.99958364 86.04080783 37.00045254 86.04254356 39 86 C42.13058152 80.8131384 42.52316861 76.51275889 42.6875 70.625 C42.72166016 69.79355469 42.75582031 68.96210937 42.79101562 68.10546875 C42.87287146 66.07076649 42.93812701 64.03540792 43 62 C46.79254704 60.95610363 50.24598778 60.86683106 54.1875 60.875 C55.43917969 60.87242188 56.69085938 60.86984375 57.98046875 60.8671875 C61 61 61 61 62 62 C62.79073598 72.5002383 62.87682065 85.60254289 56.40625 94.38671875 C50.35474386 101.32914107 44.87275985 102.61327303 36.0625 103.3125 C28.75873139 103.06516122 21.86343298 100.9284717 16.47265625 95.89453125 C13.72069966 92.35421574 12.34803149 88.2366704 11 84 C10.79246094 84.65226562 10.58492188 85.30453125 10.37109375 85.9765625 C8.15294369 92.26905513 5.87802839 96.60106374 0 100 C-8.57404184 103.73339901 -17.07155444 104.32681355 -25.859375 101.0390625 C-30.78243968 98.64939972 -34.59356368 95.47201574 -36.875 90.4375 C-38.80447528 84.5418811 -39.12896641 79.33476107 -39.0625 73.1875 C-39.041875 70.485625 -39.02125 67.78375 -39 65 C-33.06 65 -27.12 65 -21 65 C-20.6875 72.6875 -20.6875 72.6875 -20.61206055 75.08081055 C-20.38685122 79.4145832 -19.90428125 82.55788889 -17 86 C-13.37400578 86.41725678 -13.37400578 86.41725678 -10 86 C-8.02611899 78.10447594 -8.87941594 72.29214204 -12 65 C-12.33 64.01 -12.66 63.02 -13 62 C-13.66 62 -14.32 62 -15 62 C-15 61.34 -15 60.68 -15 60 C-15.88969482 59.59273682 -15.88969482 59.59273682 -16.79736328 59.17724609 C-26.59280664 53.94186282 -35.74297596 42.40861724 -39 32 C-40.87853244 23.06832737 -40.48828514 13.71916147 -36.1875 5.5625 C-27.69271125 -4.38853825 -11.22077387 -8.01483848 0 0 Z M33 12 C28.74412418 18.04032769 28.49164391 22.66875086 28.75 29.9375 C28.76804687 30.90751953 28.78609375 31.87753906 28.8046875 32.87695312 C28.8514812 35.25173351 28.92321294 37.62600015 29 40 C33.62 40 38.24 40 43 40 C43.05428494 36.81226783 43.09381088 33.62547364 43.125 30.4375 C43.14175781 29.54224609 43.15851563 28.64699219 43.17578125 27.72460938 C43.21475029 22.40533568 42.81745031 18.01481659 41 13 C39.81575674 11.58422523 39.81575674 11.58422523 36.4375 11.9375 C34.7359375 11.9684375 34.7359375 11.9684375 33 12 Z " fill="#8FCE52" transform="translate(346,33)"/>
<path d="M0 0 C4.33630619 0.88825093 7.28001299 3.18305203 10.75 5.8125 C11.40250732 6.29879883 12.05501465 6.78509766 12.72729492 7.28613281 C14.82331466 8.85072156 16.91222104 10.42443563 19 12 C21.08741888 13.5705342 23.17540117 15.14031543 25.26367188 16.7097168 C26.62383464 17.73227005 27.98321711 18.75586207 29.34179688 19.78051758 C33.8100641 23.14110975 38.34145151 26.38307235 42.984375 29.5 C45.2089222 31.15547699 47.08509396 32.99883693 49 35 C43.1905296 40.91661227 37.32116023 46.63498166 31 52 C28.68596262 53.97737131 26.37428706 55.95749861 24.0625 57.9375 C23.45720459 58.45546143 22.85190918 58.97342285 22.22827148 59.50708008 C14.0472219 66.3343295 14.0472219 66.3343295 6.38671875 73.71484375 C5 75 5 75 3 75 C3.59415709 71.85219298 4.20219921 68.70721355 4.8125 65.5625 C4.97814453 64.68400391 5.14378906 63.80550781 5.31445312 62.90039062 C6.45135395 57.08718075 7.98040934 51.56855527 10 46 C0.55086152 49.12467536 -9.51261293 52.99942427 -15.6796875 61.24609375 C-16.11539062 61.82488281 -16.55109375 62.40367188 -17 63 C-17.66 63 -18.32 63 -19 63 C-19.42925781 64.10794922 -19.42925781 64.10794922 -19.8671875 65.23828125 C-21 68 -21 68 -22.0703125 70.04296875 C-26.45433085 78.9571394 -26.45457906 89.8340039 -24.19921875 99.39453125 C-23.26783245 102.0232702 -22.22133768 104.49492053 -21 107 C-20.525625 108.11375 -20.05125 109.2275 -19.5625 110.375 C-13.24510239 120.98822799 -1.93804664 126.54203717 9.5 129.6875 C20.86906629 131.10863329 31.01188453 128.44806298 41 123 C41.99 122.67 42.98 122.34 44 122 C44 121.34 44 120.68 44 120 C45.64302953 118.31002677 47.31471312 116.64783606 49 115 C57.61973688 105.74955067 59.31418973 95.94312317 59.22265625 83.546875 C58.83698572 77.40321107 57.1798126 72.2285349 54.3125 66.8125 C52.64705386 63.24368684 52.50390117 60.89791938 53 57 C54.79562405 54.24670979 56.05254922 52.47372539 59 51 C65.99140401 50.4269341 65.99140401 50.4269341 69.75 52.5625 C80.1358842 63.81387455 80.85165105 80.3370526 80.37890625 94.84765625 C79.43341457 111.16405658 70.79263035 125.04849877 59 136 C41.53523528 149.72725893 22.83238097 151.88003181 1.2578125 149.60546875 C-9.36369921 147.37466345 -20.4381632 140.75773931 -28 133 C-28.58007812 132.40703125 -29.16015625 131.8140625 -29.7578125 131.203125 C-34.33053489 126.25429124 -37.92463112 120.99021027 -41 115 C-41.73476563 113.61361328 -41.73476563 113.61361328 -42.484375 112.19921875 C-48.34185817 98.98697442 -48.85287219 80.10300677 -43.9375 66.5 C-42.53515625 63.6328125 -42.53515625 63.6328125 -41 61 C-40.50371094 60.06929687 -40.00742187 59.13859375 -39.49609375 58.1796875 C-28.81981768 39.70844359 -12.72231633 31.4382245 7 26 C7.99 25.67 8.98 25.34 10 25 C7.04646285 16.4868635 3.61287777 8.24940425 0 0 Z " fill="#8FCF51" transform="translate(46,1)"/>
<path d="M0 0 C0.495 5.445 0.495 5.445 1 11 C1.53625 10.2575 2.0725 9.515 2.625 8.75 C7.47447362 3.13482002 12.73734171 0.70747356 20 0 C28.14055863 0 34.30250709 0.83072036 40.625 6.25 C51.37661815 18.69924207 50.46522427 35.49297474 50.33618164 51.07080078 C50.31248531 54.12689495 50.31565691 57.18211762 50.32226562 60.23828125 C50.2802663 90.10480809 50.2802663 90.10480809 41.8125 100.75 C34.76550027 106.38759978 28.37638466 107.66819326 19.37890625 107.38671875 C13.25699998 106.68606127 9.04717715 104.54675607 4.1875 100.875 C-1.35198924 93.59452843 -3.11077552 85.11659772 -3.14526367 76.10571289 C-3.15164352 74.9675563 -3.15802338 73.82939972 -3.16459656 72.65675354 C-3.16570938 71.44100143 -3.1668222 70.22524933 -3.16796875 68.97265625 C-3.17296135 67.07923744 -3.17296135 67.07923744 -3.17805481 65.14756775 C-3.18310987 62.48221296 -3.18589707 59.81696022 -3.18530273 57.15161133 C-3.18520111 53.75126465 -3.19886429 50.35112674 -3.21607494 46.95082951 C-3.22992245 43.68727975 -3.22928493 40.42373138 -3.23046875 37.16015625 C-3.23765427 35.94642838 -3.24483978 34.7327005 -3.25224304 33.48219299 C-3.23638948 27.60114399 -3.03952052 22.5406048 -1 17 C-2.91936213 17.42551896 -4.83542874 17.86591938 -6.75 18.3125 C-8.35101563 18.67794922 -8.35101563 18.67794922 -9.984375 19.05078125 C-13.15080737 20.04746916 -14.71586195 20.60846841 -17 23 C-17.4110801 25.75156075 -17.56423274 28.11259912 -17.54589844 30.86791992 C-17.55623611 31.66815079 -17.56657379 32.46838165 -17.57722473 33.29286194 C-17.60673183 35.93893435 -17.60815353 38.5842445 -17.609375 41.23046875 C-17.62435136 43.06465623 -17.64107735 44.8988302 -17.65948486 46.73298645 C-17.70323194 51.56135668 -17.72317371 56.389545 -17.73822021 61.21807861 C-17.75776485 66.14484447 -17.79973776 71.07141308 -17.83984375 75.99804688 C-17.91522575 85.66533723 -17.96339616 95.33248495 -18 105 C-24.27 105 -30.54 105 -37 105 C-37 71.01 -37 37.02 -37 2 C-30.73 2 -24.46 2 -18 2 C-17.67 4.31 -17.34 6.62 -17 9 C-16.2575 8.05125 -15.515 7.1025 -14.75 6.125 C-10.70501069 1.30953654 -6.31749425 0 0 0 Z M18 18 C16.34608288 22.09771293 15.74534409 25.58529515 15.7253418 29.98608398 C15.71580978 31.14426132 15.70627777 32.30243866 15.69645691 33.49571228 C15.69736832 34.73333817 15.69827972 35.97096405 15.69921875 37.24609375 C15.69493362 38.530569 15.6906485 39.81504425 15.68623352 41.13844299 C15.67879517 43.85088238 15.67904525 46.56319154 15.68432617 49.27563477 C15.69011924 52.7366375 15.67318286 56.19710479 15.6499815 59.65801907 C15.63163333 62.9790656 15.63543079 66.29999691 15.63671875 69.62109375 C15.627509 70.8566954 15.61829926 72.09229706 15.60881042 73.36534119 C15.47415933 82.90187339 15.47415933 82.90187339 20 91 C22.9157691 91.41702122 22.9157691 91.41702122 26 91 C29.76486109 87.23513891 30.12741573 83.38898545 30.16113281 78.26269531 C30.17074036 77.08427063 30.1803479 75.90584595 30.19024658 74.69171143 C30.19449646 73.41672791 30.19874634 72.14174438 30.203125 70.828125 C30.21167511 68.86175079 30.21167511 68.86175079 30.22039795 66.85565186 C30.23089958 64.07824313 30.23674721 61.30086328 30.24023438 58.5234375 C30.24570681 54.97831219 30.269711 51.43357334 30.29820633 47.88856888 C30.32140715 44.49342882 30.3232877 41.09834017 30.328125 37.703125 C30.3404718 36.4362384 30.3528186 35.16935181 30.36553955 33.86407471 C30.34959544 27.53640375 30.31076114 22.49812218 27 17 C23.49109865 15.4704789 21.01745687 15.60684455 18 18 Z " fill="#8FCE50" transform="translate(448,29)"/>
<path d="M0 0 C6.27 0 12.54 0 19 0 C19.33 6.93 19.66 13.86 20 21 C21.464375 20.319375 22.92875 19.63875 24.4375 18.9375 C29.63470187 16.87185117 33.61740462 16.38832077 39 18 C44.03528756 20.66015192 47.76265118 23.73742299 49.81924438 29.16014099 C52.21298121 37.17711258 52.4402124 44.84453307 52.3984375 53.16015625 C52.40046465 54.60021613 52.40338138 56.040275 52.40713501 57.48033142 C52.4115269 60.4799082 52.40522881 63.47921472 52.39111328 66.47875977 C52.37400741 70.29693352 52.38389102 74.11447502 52.40183067 77.93262577 C52.41274088 80.90031076 52.40918956 83.86784913 52.4014473 86.83553886 C52.39946601 88.2423555 52.40183048 89.64918606 52.40888596 91.0559864 C52.48788037 111.22216076 52.48788037 111.22216076 45.5 118.5625 C44.9121875 119.20316406 44.324375 119.84382813 43.71875 120.50390625 C39.84048818 123.87975688 34.96443066 123.31852162 30.09765625 123.30078125 C25.62583272 122.86656888 22.79965976 121.33825216 19 119 C19 119.99 19 120.98 19 122 C12.4 122 5.8 122 -1 122 C-0.67 81.74 -0.34 41.48 0 0 Z M20 37 C18.65240769 39.69518462 18.85796586 41.80548266 18.83886719 44.82324219 C18.82925964 46.0450116 18.8196521 47.26678101 18.80975342 48.52557373 C18.80490453 49.86600559 18.80062592 51.20643962 18.796875 52.546875 C18.79112205 53.9196981 18.78536434 55.29252118 18.77960205 56.66534424 C18.76909006 59.54708226 18.76324927 62.42879238 18.75976562 65.31054688 C18.75429232 68.99367646 18.73029059 72.67643421 18.70179367 76.35944748 C18.68311562 79.19741877 18.67795888 82.03530161 18.67642975 84.87332916 C18.67194926 86.8884764 18.65332388 88.90357621 18.63446045 90.91864014 C18.63746155 92.15301819 18.64046265 93.38739624 18.64355469 94.65917969 C18.63990906 95.74124695 18.63626343 96.82331421 18.63250732 97.93817139 C19.06675366 101.55616966 20.03302854 103.93888442 22 107 C25.59385054 107.97873538 25.59385054 107.97873538 29 108 C32.74203894 103.44447433 33.12291118 99.94890778 33.16113281 94.13330078 C33.17074036 92.95172394 33.1803479 91.77014709 33.19024658 90.55276489 C33.19449646 89.2798056 33.19874634 88.00684631 33.203125 86.6953125 C33.20882507 85.38343964 33.21452515 84.07156677 33.22039795 82.71994019 C33.23088728 79.94431167 33.23674357 77.16871194 33.24023438 74.39306641 C33.24571743 70.84675115 33.26974963 67.30082015 33.29820633 63.75462532 C33.32137384 60.35986199 33.32328471 56.96515077 33.328125 53.5703125 C33.3466452 51.66694626 33.3466452 51.66694626 33.36553955 49.72512817 C33.36253845 48.53724701 33.35953735 47.34936584 33.35644531 46.12548828 C33.36009094 45.08498322 33.36373657 44.04447815 33.36749268 42.97244263 C32.90932515 39.26658189 31.70384422 35.70384422 29 33 C24.46245703 32.38681852 22.85815532 33.52938283 20 37 Z " fill="#FEFEFE" transform="translate(248,12)"/>
<path d="M0 0 C6.27 0 12.54 0 19 0 C19 2.31 19 4.62 19 7 C18.67 7 18.34 7 18 7 C18 5.02 18 3.04 18 1 C17.01 1.33 16.02 1.66 15 2 C10.71 2 6.42 2 2 2 C2 35 2 68 2 102 C7.28 102 12.56 102 18 102 C18 75.6 18 49.2 18 22 C18.33 22 18.66 22 19 22 C19 48.73 19 75.46 19 103 C12.73 103 6.46 103 0 103 C0 69.01 0 35.02 0 0 Z " fill="#8EBF69" transform="translate(411,31)"/>
<path d="M0 0 C4.18358477 0.55848826 7.02629569 3.04446302 10.25 5.5625 C10.80429687 5.98724609 11.35859375 6.41199219 11.9296875 6.84960938 C13.29089411 7.89398341 14.64605833 8.94622464 16 10 C14.125 11.0625 14.125 11.0625 12 12 C11.34 11.67 10.68 11.34 10 11 C10 10.34 10 9.68 10 9 C9.01 9 8.02 9 7 9 C7.33 9.5775 7.66 10.155 8 10.75 C9 13 9 13 9 17 C9.66 17 10.32 17 11 17 C11.19406478 18.64507218 11.38007935 20.29109594 11.5625 21.9375 C11.66691406 22.85402344 11.77132812 23.77054688 11.87890625 24.71484375 C11.91886719 25.46894531 11.95882812 26.22304688 12 27 C11 28 11 28 7.875 28.4375 C3.98831522 28.90187207 3.98831522 28.90187207 0.3125 30.125 C-3 31 -3 31 -7 30 C1.415 27.525 1.415 27.525 10 25 C7.01103804 16.49295441 3.61539677 8.25515595 0 0 Z " fill="#95C766" transform="translate(46,1)"/>
<path d="M0 0 C0.33 0 0.66 0 1 0 C0.90460937 0.73605469 0.80921875 1.47210938 0.7109375 2.23046875 C0.60007812 3.20628906 0.48921875 4.18210937 0.375 5.1875 C0.25898437 6.15042969 0.14296875 7.11335938 0.0234375 8.10546875 C-0.00194942 11.24075323 0.65640717 13.19486535 2 16 C2.33 15.34 2.66 14.68 3 14 C5.3140622 13.26924352 7.64828869 12.59861742 10 12 C6.10633735 16.94908769 2.18409766 20.44228592 -3 24 C-3.33 24.66 -3.66 25.32 -4 26 C-4.66 26 -5.32 26 -6 26 C-5.3814845 22.79038175 -4.75402356 19.58257402 -4.125 16.375 C-3.95097656 15.47136719 -3.77695312 14.56773438 -3.59765625 13.63671875 C-2.67623333 8.96135062 -1.6538714 4.48482245 0 0 Z " fill="#91C85D" transform="translate(55,50)"/>
<path d="M0 0 C-0.33 0.99 -0.66 1.98 -1 3 C-2.8125 3.87890625 -2.8125 3.87890625 -5 4.5625 C-7.14541038 5.20681284 -7.14541038 5.20681284 -9 6 C-9.33 6.66 -9.66 7.32 -10 8 C-9.34 8 -8.68 8 -8 8 C-8 8.66 -8 9.32 -8 10 C-8.66 10 -9.32 10 -10 10 C-10.66 11.65 -11.32 13.3 -12 15 C-12.99 15 -13.98 15 -15 15 C-14 13 -13 11 -12 9 C-15.5863464 10.93856562 -17.62660802 12.7224587 -20 16 C-20.66 16 -21.32 16 -22 16 C-22.020625 16.928125 -22.04125 17.85625 -22.0625 18.8125 C-23 22 -23 22 -24.625 23.06640625 C-26.38218533 23.79974771 -28.19037549 24.40775925 -30 25 C-28.5723771 20.45982716 -26.06244529 17.48608568 -22.75 14.1875 C-22.23002441 13.66704102 -21.71004883 13.14658203 -21.17431641 12.61035156 C-16.20328587 7.84369051 -7.23841572 0 0 0 Z " fill="#92CB61" transform="translate(39,32)"/>
<path d="M0 0 C0.33 0.66 0.66 1.32 1 2 C2.65 2 4.3 2 6 2 C6.04633899 11.18815053 6.08187715 20.37626083 6.10362434 29.56450272 C6.11406186 33.83096697 6.12822048 38.09735128 6.15087891 42.36376953 C6.17260842 46.48104386 6.18456887 50.59824129 6.18975449 54.71556854 C6.19345005 56.28644776 6.20066652 57.85732277 6.21146011 59.42816925 C6.22597658 61.62831216 6.22797789 63.82813722 6.22705078 66.02832031 C6.231492 67.28074524 6.23593323 68.53317017 6.24050903 69.82354736 C6.01350792 72.82159813 5.58299537 74.48812257 4 77 C3.01 76.67 2.02 76.34 1 76 C1.73098152 74.70352539 1.73098152 74.70352539 2.47673035 73.38085938 C4.06157245 69.86334147 4.37463764 67.7244465 4.37231445 63.90625 C4.37854324 62.72482422 4.38477203 61.54339844 4.39118958 60.32617188 C4.38197983 59.06353516 4.37277008 57.80089844 4.36328125 56.5 C4.36377975 55.19095703 4.36427826 53.88191406 4.36479187 52.53320312 C4.36470244 49.76941312 4.35433292 47.00591657 4.33618164 44.2421875 C4.31349532 40.7116669 4.31295346 37.18157442 4.31969929 33.65100098 C4.32385718 30.26728578 4.31185773 26.88370051 4.30078125 23.5 C4.30169266 22.23736328 4.30260406 20.97472656 4.30354309 19.67382812 C4.29401108 18.49240234 4.28447906 17.31097656 4.2746582 16.09375 C4.27005081 15.05927734 4.26544342 14.02480469 4.26069641 12.95898438 C3.89896638 8.85323739 3.10882426 5.27941261 0.375 2.125 C-0.07875 1.75375 -0.5325 1.3825 -1 1 C-0.67 0.67 -0.34 0.34 0 0 Z " fill="#85B660" transform="translate(473,43)"/>
<path d="M0 0 C-0.66 0.33 -1.32 0.66 -2 1 C-2.70125 0.69449219 -3.4025 0.38898437 -4.125 0.07421875 C-7.78119508 -1.29188675 -11.15688009 -1.25486096 -15 -1.1875 C-15.69867188 -1.18685547 -16.39734375 -1.18621094 -17.1171875 -1.18554688 C-20.83621089 -1.15397026 -24.43022717 -1.10203214 -28 0 C-28.69658363 1.65438613 -29.36096883 3.32254318 -30 5 C-32.27158744 6.59011121 -34.52870728 7.76435364 -37 9 C-35.60306939 4.11074285 -33.06012438 1.94558043 -29 -1 C-20.21171072 -5.39414464 -8.35426153 -5.33744487 0 0 Z " fill="#97C56F" transform="translate(346,33)"/>
<path d="M0 0 C-5.82478551 3.03901852 -10.48208608 3.3540919 -17 3 C-17.33 3.66 -17.66 4.32 -18 5 C-21.9167686 6.23098442 -25.02389268 5.83220851 -29 5 C-29.33 3.68 -29.66 2.36 -30 1 C-28.22496094 1.03480469 -28.22496094 1.03480469 -26.4140625 1.0703125 C-14.98419593 1.25916235 -14.98419593 1.25916235 -3.75 -0.66015625 C-2 -1 -2 -1 0 0 Z " fill="#93C85E" transform="translate(79,130)"/>
<path d="M0 0 C1.65 0.66 3.3 1.32 5 2 C-1.14293817 5.41274343 -7.94921806 5.99391511 -14.73828125 4.328125 C-17.1767784 3.59692076 -19.59302645 2.82863024 -22 2 C-22 1.67 -22 1.34 -22 1 C-20.33388095 0.957279 -18.66617115 0.95936168 -17 1 C-16.67 1.33 -16.34 1.66 -16 2 C-11.40509609 2.15316346 -7.50117276 1.90023455 -3 1 C-2.01 1.33 -1.02 1.66 0 2 C0 1.34 0 0.68 0 0 Z " fill="#96C966" transform="translate(390,131)"/>
<path d="M0 0 C0.33 0 0.66 0 1 0 C1.28875 1.0725 1.5775 2.145 1.875 3.25 C2.72820109 6.09400364 3.5636503 8.43508983 5 11 C5.99 11 6.98 11 8 11 C8.144375 12.11375 8.28875 13.2275 8.4375 14.375 C8.78372035 17.82142047 8.78372035 17.82142047 10 20 C5.53634619 18.24642172 3.15272995 15.33380572 1.046875 11.0703125 C-0.62090072 7.05248918 -1.47241035 4.28337556 0 0 Z " fill="#93C769" transform="translate(358,112)"/>
<path d="M0 0 C2.875 2.5 2.875 2.5 5 5 C5 5.99 5 6.98 5 8 C4.7525 7.38125 4.505 6.7625 4.25 6.125 C1.84593661 2.03809223 -2.67145096 1.3772656 -7 0 C-7 -0.66 -7 -1.32 -7 -2 C-12.28 -2 -17.56 -2 -23 -2 C-23 -2.33 -23 -2.66 -23 -3 C-15.44745673 -4.82923984 -6.53992401 -4.46628956 0 0 Z " fill="#96C56E" transform="translate(486,33)"/>
<path d="M0 0 C0.66 0 1.32 0 2 0 C2 0.66 2 1.32 2 2 C9.59 2 17.18 2 25 2 C19.82842805 5.44771463 14.07887554 5.58733097 8 5 C4.91477774 4.19718876 1.96151078 3.17620286 -1 2 C-0.67 1.34 -0.34 0.68 0 0 Z " fill="#95C867" transform="translate(319,131)"/>
<path d="M0 0 C2 1 2 1 2.81640625 3.2578125 C3.06261719 4.20398437 3.30882812 5.15015625 3.5625 6.125 C3.81128906 7.05570313 4.06007813 7.98640625 4.31640625 8.9453125 C5.8133302 15.63442408 6.03838469 21.64930567 5.5625 28.4375 C5.51029297 29.26443359 5.45808594 30.09136719 5.40429688 30.94335938 C5.27590237 32.96265478 5.13884576 34.98139629 5 37 C4.67 37 4.34 37 4 37 C3.97494385 36.40050537 3.9498877 35.80101074 3.92407227 35.18334961 C3.80714227 32.43456676 3.68486053 29.68604625 3.5625 26.9375 C3.52318359 25.99455078 3.48386719 25.05160156 3.44335938 24.08007812 C3.09579501 16.40692636 2.17427225 9.39252565 0 2 C0 1.34 0 0.68 0 0 Z " fill="#95C273" transform="translate(492,41)"/>
<path d="M0 0 C-0.66 1.32 -1.32 2.64 -2 4 C-3.32 3.67 -4.64 3.34 -6 3 C-6 3.66 -6 4.32 -6 5 C-6.56589844 5.18175781 -7.13179688 5.36351562 -7.71484375 5.55078125 C-8.81505859 5.92783203 -8.81505859 5.92783203 -9.9375 6.3125 C-10.66839844 6.55613281 -11.39929688 6.79976562 -12.15234375 7.05078125 C-14.35932024 7.91240441 -14.35932024 7.91240441 -15 11 C-15.66 11 -16.32 11 -17 11 C-15.64065946 6.55124915 -13.93612779 4.48147186 -10 2 C-6.73911384 0.89217495 -3.46765326 0 0 0 Z " fill="#93C564" transform="translate(448,29)"/>
<path d="M0 0 C0.66 0.33 1.32 0.66 2 1 C2.4921875 3.4765625 2.4921875 3.4765625 2.875 6.625 C3.67113497 12.00533147 4.95251029 15.53034843 8 20 C7.34 20 6.68 20 6 20 C5.67 19.34 5.34 18.68 5 18 C2.97536745 17.34786708 2.97536745 17.34786708 1 17 C1.33 15.02 1.66 13.04 2 11 C1.01 10.67 0.02 10.34 -1 10 C-0.67 6.7 -0.34 3.4 0 0 Z " fill="#90C364" transform="translate(323,49)"/>
<path d="M0 0 C0.99 0.33 1.98 0.66 3 1 C-2.4511097 6.03432465 -7.84108352 10.84942585 -14 15 C-13.690625 14.4225 -13.38125 13.845 -13.0625 13.25 C-12.07416636 11.15705816 -11.4831387 9.25464725 -11 7 C-8.69 6.34 -6.38 5.68 -4 5 C-4 4.34 -4 3.68 -4 3 C-3.34 3 -2.68 3 -2 3 C-2 2.34 -2 1.68 -2 1 C-1.34 0.67 -0.68 0.34 0 0 Z " fill="#97C86C" transform="translate(83,44)"/>
<path d="M0 0 C0.33 0 0.66 0 1 0 C2.16036815 8.7027611 1.6797917 16.39280284 0 25 C-0.33 25 -0.66 25 -1 25 C-1.0289337 21.20834926 -1.04677601 17.41672673 -1.0625 13.625 C-1.07087891 12.54476562 -1.07925781 11.46453125 -1.08789062 10.3515625 C-1.09111328 9.3203125 -1.09433594 8.2890625 -1.09765625 7.2265625 C-1.10289307 6.27346191 -1.10812988 5.32036133 -1.11352539 4.33837891 C-1 2 -1 2 0 0 Z " fill="#96C668" transform="translate(496,94)"/>
<path d="M0 0 C0.66 0.33 1.32 0.66 2 1 C1.67257813 1.76570313 1.34515625 2.53140625 1.0078125 3.3203125 C-0.33772909 8.2331039 -0.21422457 12.80978999 -0.125 17.875 C-0.11597656 18.84953125 -0.10695313 19.8240625 -0.09765625 20.828125 C-0.07421623 23.21900728 -0.04140442 25.60937261 0 28 C-0.66 28 -1.32 28 -2 28 C-2.33 20.08 -2.66 12.16 -3 4 C-2.01 3.67 -1.02 3.34 0 3 C0 2.01 0 1.02 0 0 Z " fill="#91C568" transform="translate(21,72)"/>
<path d="M0 0 C4.43458973 1.3937282 6.87378374 3.60582235 10 7 C7.69 9.31 5.38 11.62 3 14 C2.67 13.34 2.34 12.68 2 12 C2.33 11.01 2.66 10.02 3 9 C3.66 8.67 4.32 8.34 5 8 C5 6.68 5 5.36 5 4 C4.34 4 3.68 4 3 4 C3 3.34 3 2.68 3 2 C2.01 2 1.02 2 0 2 C0 1.34 0 0.68 0 0 Z " fill="#99C66C" transform="translate(85,29)"/>
<path d="M0 0 C0.33 0.66 0.66 1.32 1 2 C3.52733235 2.65555119 3.52733235 2.65555119 6 3 C6 3.33 6 3.66 6 4 C4.77023437 4.29003906 4.77023437 4.29003906 3.515625 4.5859375 C2.43796875 4.84632812 1.3603125 5.10671875 0.25 5.375 C-0.81734375 5.63023438 -1.8846875 5.88546875 -2.984375 6.1484375 C-5.55852722 6.87533541 -7.67600186 7.7026224 -10 9 C-8.7455037 5.2365111 -6.95278233 3.60943555 -4 1 C-1.6875 0.1875 -1.6875 0.1875 0 0 Z " fill="#96CA69" transform="translate(441,42)"/>
<path d="M0 0 C2.10827055 3.16240582 2.33817465 4.50657469 2.625 8.1875 C2.69976562 9.08855469 2.77453125 9.98960938 2.8515625 10.91796875 C2.90054687 11.60503906 2.94953125 12.29210938 3 13 C0.5 11.3125 0.5 11.3125 -2 9 C-2.3125 6.25 -2.3125 6.25 -2 4 C-1.34 4 -0.68 4 0 4 C0 2.68 0 1.36 0 0 Z " fill="#91C861" transform="translate(404,42)"/>
<path d="M0 0 C0.33 0 0.66 0 1 0 C1 3.96 1 7.92 1 12 C1.66 12.33 2.32 12.66 3 13 C3.73075648 15.3140622 4.40138258 17.64828869 5 20 C4.01 19.67 3.02 19.34 2 19 C2 18.34 2 17.68 2 17 C1.01 17 0.02 17 -1 17 C-0.67 11.39 -0.34 5.78 0 0 Z " fill="#95C865" transform="translate(323,99)"/>
<path d="M0 0 C-0.33 0.99 -0.66 1.98 -1 3 C-2.423125 3.12375 -2.423125 3.12375 -3.875 3.25 C-7.10461791 3.65074923 -7.10461791 3.65074923 -8.375 6.0625 C-8.58125 6.701875 -8.7875 7.34125 -9 8 C-9.99 8 -10.98 8 -12 8 C-10.95505436 4.74905801 -9.40864509 3.43126714 -6.5625 1.75 C-3 0 -3 0 0 0 Z " fill="#95C66A" transform="translate(374,31)"/>
<path d="M0 0 C0.99 0 1.98 0 3 0 C3.66 0.66 4.32 1.32 5 2 C8.08347826 2.16681109 8.08347826 2.16681109 11 2 C9.35 3.32 7.7 4.64 6 6 C5.67 5.34 5.34 4.68 5 4 C4.67 4.66 4.34 5.32 4 6 C3.34 6 2.68 6 2 6 C0 3 0 3 0 0 Z " fill="#92D146" transform="translate(53,10)"/>
<path d="M0 0 C2.79033346 2.38275666 3.72983292 4.5022843 4.75 8 C5.01296875 8.86625 5.2759375 9.7325 5.546875 10.625 C6 13 6 13 5 16 C4.896875 15.360625 4.79375 14.72125 4.6875 14.0625 C4.460625 13.381875 4.23375 12.70125 4 12 C3.01 11.67 2.02 11.34 1 11 C1.020625 9.9275 1.04125 8.855 1.0625 7.75 C1.0142016 4.85209576 0.86844115 2.71387859 0 0 Z " fill="#99C671" transform="translate(119,60)"/>
<path d="M0 0 C0.33 0.66 0.66 1.32 1 2 C2.65 2 4.3 2 6 2 C6 5.63 6 9.26 6 13 C4 10 4 10 3.0625 7 C2.04603735 4.12998783 1.30842724 2.88871319 -1 1 C-0.67 0.67 -0.34 0.34 0 0 Z " fill="#8EC365" transform="translate(473,43)"/>
<path d="M0 0 C0.33 0.99 0.66 1.98 1 3 C-0.32 3.33 -1.64 3.66 -3 4 C-3 5.98 -3 7.96 -3 10 C-3.33 10 -3.66 10 -4 10 C-4.66 7.03 -5.32 4.06 -6 1 C-2 0 -2 0 0 0 Z " fill="#94C962" transform="translate(341,44)"/>
<path d="M0 0 C-1 3 -1 3 -2.671875 3.87890625 C-3.35765625 4.10449219 -4.0434375 4.33007812 -4.75 4.5625 C-5.46671875 4.80742188 -6.1834375 5.05234375 -6.921875 5.3046875 C-7.95054688 5.64886719 -7.95054688 5.64886719 -9 6 C-10.66905395 6.66066719 -12.3369416 7.32438252 -14 8 C-10.67417683 4.11987297 -5.34770586 0 0 0 Z " fill="#96C56D" transform="translate(39,32)"/>
<path d="M0 0 C4.53460431 1.13365108 5.90024653 2.64193374 9 6 C6.525 5.01 6.525 5.01 4 4 C4.33 5.32 4.66 6.64 5 8 C4.34 8 3.68 8 3 8 C2.01 5.36 1.02 2.72 0 0 Z " fill="#9FCA7F" transform="translate(46,1)"/>
<path d="M0 0 C0.99 0.33 1.98 0.66 3 1 C-0.465 3.97 -0.465 3.97 -4 7 C-4.66 6.67 -5.32 6.34 -6 6 C-5.67 4.68 -5.34 3.36 -5 2 C-3.02 2.495 -3.02 2.495 -1 3 C-0.67 2.01 -0.34 1.02 0 0 Z " fill="#95C669" transform="translate(350,126)"/>
<path d="M0 0 C0.99 0.33 1.98 0.66 3 1 C2.54857225 2.77260631 2.08859477 4.5430368 1.625 6.3125 C1.24214844 7.79169922 1.24214844 7.79169922 0.8515625 9.30078125 C0 12 0 12 -2 15 C-1.85930804 12.87465341 -1.71229079 10.74972471 -1.5625 8.625 C-1.48128906 7.44164063 -1.40007812 6.25828125 -1.31640625 5.0390625 C-1 2 -1 2 0 0 Z " fill="#99C971" transform="translate(123,99)"/>
<path d="M0 0 C0.33 0.66 0.66 1.32 1 2 C0.195625 2.61875 -0.60875 3.2375 -1.4375 3.875 C-4.03874519 5.74164041 -4.03874519 5.74164041 -5 8 C-5.66 8 -6.32 8 -7 8 C-7.33 8.66 -7.66 9.32 -8 10 C-8.33 8.68 -8.66 7.36 -9 6 C-8.360625 5.731875 -7.72125 5.46375 -7.0625 5.1875 C-4.66868314 4.11332248 -4.66868314 4.11332248 -4 1 C-1.9375 0.3125 -1.9375 0.3125 0 0 Z " fill="#98C96D" transform="translate(34,56)"/>
<path d="M0 0 C0.33 0 0.66 0 1 0 C1 1.65 1 3.3 1 5 C2.32 4.67 3.64 4.34 5 4 C3.38405168 6.04119788 1.7143618 8.04072937 0 10 C-0.66 10 -1.32 10 -2 10 C-1.34 6.7 -0.68 3.4 0 0 Z " fill="#9BC17C" transform="translate(51,66)"/>
<path d="M0 0 C0.66 0 1.32 0 2 0 C2 0.99 2 1.98 2 3 C-4.96428571 6.34821429 -4.96428571 6.34821429 -9 5 C-8.43410156 4.72285156 -7.86820312 4.44570312 -7.28515625 4.16015625 C-6.55167969 3.79792969 -5.81820312 3.43570313 -5.0625 3.0625 C-3.96615234 2.52302734 -3.96615234 2.52302734 -2.84765625 1.97265625 C-1.03750973 1.13628173 -1.03750973 1.13628173 0 0 Z " fill="#94C06A" transform="translate(88,123)"/>
<path d="M0 0 C1.04184255 3.38598829 1.23042499 6.46681687 1 10 C0.34 10.66 -0.32 11.32 -1 12 C-2.50934217 8.98131566 -2.17510672 6.32702771 -2 3 C-1.34 2.01 -0.68 1.02 0 0 Z " fill="#93C36E" transform="translate(101,55)"/>
<path d="M0 0 C1.1725131 0.95117134 2.33787015 1.91117009 3.5 2.875 C4.47453125 3.67550781 4.47453125 3.67550781 5.46875 4.4921875 C5.9740625 4.98976563 6.479375 5.48734375 7 6 C7 6.66 7 7.32 7 8 C5.1875 7.8125 5.1875 7.8125 3 7 C0 2.82142857 0 2.82142857 0 0 Z " fill="#91C264" transform="translate(341,78)"/>
<path d="M0 0 C1.24142712 4.96570849 0.37261666 7.15547062 -1 12 C-1.99 11.67 -2.98 11.34 -4 11 C-2.68 7.37 -1.36 3.74 0 0 Z " fill="#99CC72" transform="translate(4,64)"/>
<path d="M0 0 C4.17882671 2.56428003 7.12505529 5.01930733 10 9 C6.41213553 7.34406255 3.16216412 5.37162309 0 3 C0 2.01 0 1.02 0 0 Z " fill="#91BF6A" transform="translate(331,69)"/>
<path d="M0 0 C-0.9520721 1.00596297 -1.91187346 2.00461563 -2.875 3 C-3.40867187 3.556875 -3.94234375 4.11375 -4.4921875 4.6875 C-6 6 -6 6 -8 6 C-7.8125 3.625 -7.8125 3.625 -7 1 C-2.77108434 -1.38554217 -2.77108434 -1.38554217 0 0 Z " fill="#93BA68" transform="translate(65,63)"/>
<path d="M0 0 C1.32 0 2.64 0 4 0 C4 0.99 4 1.98 4 3 C2.46875 4.38671875 2.46875 4.38671875 0.5 5.6875 C-0.47453125 6.34298828 -0.47453125 6.34298828 -1.46875 7.01171875 C-1.9740625 7.33785156 -2.479375 7.66398437 -3 8 C-2.5359375 7.13375 -2.5359375 7.13375 -2.0625 6.25 C-1.07416636 4.15705816 -0.4831387 2.25464725 0 0 Z " fill="#93C960" transform="translate(72,51)"/>
<path d="M0 0 C0.66 0.33 1.32 0.66 2 1 C0.8141763 4.37503669 -0.27573689 6.64722731 -3 9 C-3.26218749 5.85375007 -3.24754367 4.38162983 -1.5 1.6875 C-1.005 1.130625 -0.51 0.57375 0 0 Z " fill="#99D06B" transform="translate(118,115)"/>
<path d="M0 0 C2.475 0.99 2.475 0.99 5 2 C5 3.98 5 5.96 5 8 C4.34 8 3.68 8 3 8 C0.95830515 5.09451118 0 3.59857954 0 0 Z " fill="#9BCE6D" transform="translate(5,113)"/>
<path d="M0 0 C0.99 0 1.98 0 3 0 C3.144375 1.11375 3.28875 2.2275 3.4375 3.375 C3.78372035 6.82142047 3.78372035 6.82142047 5 9 C3.0625 8.4375 3.0625 8.4375 1 7 C0.25 3.375 0.25 3.375 0 0 Z " fill="#93C958" transform="translate(363,123)"/>
<path d="M0 0 C0.66 0 1.32 0 2 0 C2.33 1.65 2.66 3.3 3 5 C1.125 5.625 1.125 5.625 -1 6 C-1.66 5.34 -2.32 4.68 -3 4 C-1.625 2 -1.625 2 0 0 Z " fill="#97CD65" transform="translate(95,116)"/>
<path d="M0 0 C0.66 0 1.32 0 2 0 C2 0.66 2 1.32 2 2 C2.99 2.33 3.98 2.66 5 3 C3.625 5 3.625 5 2 7 C1.34 7 0.68 7 0 7 C0 4.69 0 2.38 0 0 Z " fill="#95C855" transform="translate(324,43)"/>
</svg>
