<?xml version="1.0" encoding="UTF-8"?>
<svg version="1.1" xmlns="http://www.w3.org/2000/svg" width="500" height="153">
<path d="M0 0 C4.6118357 3.50900542 6.65696155 7.85350069 9 13 C9.66201689 14.33564811 10.32741405 15.66964277 11 17 C11.3403125 16.20335938 11.680625 15.40671875 12.03125 14.5859375 C15.62366367 6.73230975 18.89118655 1.47372104 27.0546875 -1.83203125 C34.77548385 -4.02383241 44.13731078 -3.60400548 51.5 -0.375 C58.1878934 3.58141694 60.46031267 9.46722501 62.36010742 16.71655273 C63.44264695 22.2713311 63.59394292 27.83481233 63.70849609 33.48242188 C63.75052269 35.52540912 63.81319668 37.56702433 63.87890625 39.609375 C64.14651498 49.56045507 64.14651498 49.56045507 63 53 C52.44 53 41.88 53 31 53 C31.103125 58.053125 31.20625 63.10625 31.3125 68.3125 C31.33739502 69.90360596 31.36229004 71.49471191 31.38793945 73.1340332 C31.42105225 74.38531006 31.45416504 75.63658691 31.48828125 76.92578125 C31.51446533 78.20880127 31.54064941 79.49182129 31.56762695 80.8137207 C31.74116733 83.95359304 31.74116733 83.95359304 33.37182617 85.91870117 C35.70579925 87.46873368 37.26575429 87.42065319 40 87 C42.04321419 83.93517872 42.26418841 83.14131165 42.37890625 79.65625 C42.41306641 78.82222656 42.44722656 77.98820312 42.48242188 77.12890625 C42.50884766 76.26136719 42.53527344 75.39382812 42.5625 74.5 C42.62252054 72.78111379 42.68617165 71.06234951 42.75390625 69.34375 C42.78979858 68.20196289 42.78979858 68.20196289 42.82641602 67.03710938 C43 65 43 65 44 62 C49.94 62 55.88 62 62 62 C64.25431458 69.89010105 64.25431458 69.89010105 63.8984375 73.3046875 C63.82278564 74.04879883 63.74713379 74.79291016 63.66918945 75.55957031 C63.57210693 76.32366211 63.47502441 77.08775391 63.375 77.875 C63.27727295 78.6700293 63.1795459 79.46505859 63.07885742 80.28417969 C61.88989855 88.99189649 59.84223572 95.13776163 52.87890625 100.80859375 C47.71702537 104.08171988 43.14492825 104.36516114 37.1875 104.375 C36.41857422 104.39949219 35.64964844 104.42398438 34.85742188 104.44921875 C28.57200967 104.48104362 23.21446262 102.96138014 18.50537109 98.62304688 C15.67764131 95.4087175 13.75565569 91.88092311 12 88 C11.64808594 88.66386719 11.29617188 89.32773438 10.93359375 90.01171875 C7.10761389 96.85452868 3.6928644 101.43571187 -4 104 C-6.91048781 104.17560807 -9.77549369 104.27718869 -12.6875 104.3125 C-13.46544922 104.34150391 -14.24339844 104.37050781 -15.04492188 104.40039062 C-21.77729761 104.47338552 -26.94051109 102.75293894 -31.98828125 98.2109375 C-38.78236519 88.79141109 -39.80166235 79.46993819 -39 68 C-38.505 67.01 -38.505 67.01 -38 66 C-32.06 66 -26.12 66 -20 66 C-19.1875 74.8125 -19.1875 74.8125 -18.95385742 77.57739258 C-18.84328003 78.66250122 -18.84328003 78.66250122 -18.73046875 79.76953125 C-18.66239014 80.50792236 -18.59431152 81.24631348 -18.52416992 82.00708008 C-17.87675062 84.46860024 -17.01807852 85.47388329 -15 87 C-12.3727086 86.92466753 -12.3727086 86.92466753 -10 86 C-7.54352916 81.08705832 -8.59754461 74.39675693 -10.0625 69.3125 C-13.85948633 62.82087821 -18.84951026 58.09287021 -24.5 53.1875 C-32.30624865 46.21878559 -38.31457549 37.89753507 -39.37109375 27.265625 C-39.68112114 17.06874853 -38.43466701 9.84719418 -31.3125 2.0625 C-21.30085088 -4.17116832 -10.74702021 -4.60321418 0 0 Z M-17 14 C-20.42597964 18.11117557 -20.17023802 21.3610493 -19.71484375 26.40234375 C-17.9460329 32.82998972 -12.98557629 37.3261725 -8.375 41.875 C-7.78976562 42.46796875 -7.20453125 43.0609375 -6.6015625 43.671875 C-3.8218852 46.8937556 -3.8218852 46.8937556 0 48 C0.25652344 48.56203125 0.51304687 49.1240625 0.77734375 49.703125 C2.14925662 52.28039262 3.76364584 54.45167276 5.5625 56.75 C6.18253906 57.54921875 6.80257812 58.3484375 7.44140625 59.171875 C7.95574219 59.77515625 8.47007812 60.3784375 9 61 C9.33 61 9.66 61 10 61 C10 52.09 10 43.18 10 34 C4.39 33.67 -1.22 33.34 -7 33 C-7.1953125 29.77734375 -7.390625 26.5546875 -7.5859375 23.33203125 C-7.97509574 20.20040883 -8.6809851 17.84714191 -10 15 C-12.31 14.67 -14.62 14.34 -17 14 Z M32 16 C31.01956036 18.94131891 30.88378798 20.82501665 30.90234375 23.88671875 C30.90556641 24.82451172 30.90878906 25.76230469 30.91210938 26.72851562 C30.92048828 27.70498047 30.92886719 28.68144531 30.9375 29.6875 C30.94201172 30.67556641 30.94652344 31.66363281 30.95117188 32.68164062 C30.96295697 35.12115474 30.97940989 37.56054689 31 40 C32.43640171 40.19573608 33.87419504 40.38127816 35.3125 40.5625 C36.11300781 40.66691406 36.91351563 40.77132812 37.73828125 40.87890625 C40.16817116 41.14755178 40.16817116 41.14755178 43 40 C43.05814085 36.41673499 43.09364357 32.83359162 43.125 29.25 C43.14175781 28.23421875 43.15851563 27.2184375 43.17578125 26.171875 C43.18222656 25.1921875 43.18867188 24.2125 43.1953125 23.203125 C43.20578613 22.30239258 43.21625977 21.40166016 43.22705078 20.47363281 C42.98419359 17.82779507 42.41829022 16.23278504 41 14 C37.28852598 12.08027206 35.13443647 13.62799403 32 16 Z " fill="#90CE50" transform="translate(345,32)"/>
<path d="M0 0 C4.89480583 4.48388386 7.27596719 10.10405089 7.74072266 16.70214844 C7.77780545 19.10016933 7.75726581 21.48898463 7.70703125 23.88671875 C7.69800781 24.71365234 7.68898437 25.54058594 7.6796875 26.39257812 C7.65634637 28.41158583 7.62048413 30.43044231 7.58203125 32.44921875 C1.97203125 32.44921875 -3.63796875 32.44921875 -9.41796875 32.44921875 C-9.79296875 25.19921875 -9.79296875 25.19921875 -9.89599609 22.93652344 C-10.10836276 19.36376657 -10.31627331 16.41371547 -12.41796875 13.44921875 C-14.82679562 12.45078099 -14.82679562 12.45078099 -17.41796875 12.44921875 C-20.51329769 14.06345217 -20.51329769 14.06345217 -21.03515625 16.3671875 C-21.7675365 22.81435307 -20.96343815 27.07093087 -16.9375 32.4140625 C-14.0092643 35.90516273 -10.88014215 38.99124536 -7.41796875 41.94921875 C0.47662216 48.72909953 4.07054405 54.52394691 8.58203125 64.44921875 C8.91203125 42.33921875 9.24203125 20.22921875 9.58203125 -2.55078125 C15.85203125 -2.55078125 22.12203125 -2.55078125 28.58203125 -2.55078125 C28.61176025 1.02938843 28.61176025 1.02938843 28.64208984 4.68188477 C28.7090924 12.58089943 28.78673047 20.47978402 28.86955833 28.3786478 C28.91943607 33.16622093 28.96576676 37.95377291 29.00390625 42.74145508 C29.04086684 47.36458785 29.08725579 51.9875399 29.14009476 56.6105175 C29.15858155 58.37145749 29.17371046 60.13243613 29.18537521 61.89343452 C29.20233584 64.36607366 29.23139372 66.83830404 29.26318359 69.31079102 C29.26534378 70.03368317 29.26750397 70.75657532 29.26972961 71.50137329 C29.34644848 76.19347433 30.13525642 80.0334133 31.58203125 84.44921875 C34.9366128 85.21444676 34.9366128 85.21444676 38.58203125 85.44921875 C40.73063198 83.94519824 41.41755617 82.7781689 42.58203125 80.44921875 C42.70440879 77.82597957 42.76770879 75.22753143 42.78735352 72.60302734 C42.79725311 71.79318893 42.80715271 70.98335052 42.81735229 70.14897156 C42.84900524 67.46522979 42.87373969 64.7814703 42.8984375 62.09765625 C42.91900375 60.23962945 42.94000014 58.38160736 42.96141052 56.52359009 C43.01666515 51.6278464 43.06605946 46.73206024 43.11425781 41.83624268 C43.1644481 36.84261282 43.22014705 31.8490448 43.27539062 26.85546875 C43.38301369 17.05343622 43.48394054 7.25135131 43.58203125 -2.55078125 C49.85203125 -2.55078125 56.12203125 -2.55078125 62.58203125 -2.55078125 C62.58203125 31.43921875 62.58203125 65.42921875 62.58203125 100.44921875 C56.31203125 100.44921875 50.04203125 100.44921875 43.58203125 100.44921875 C43.25203125 98.79921875 42.92203125 97.14921875 42.58203125 95.44921875 C42.123125 95.87074219 41.66421875 96.29226562 41.19140625 96.7265625 C40.5778125 97.27441406 39.96421875 97.82226562 39.33203125 98.38671875 C38.72875 98.93199219 38.12546875 99.47726563 37.50390625 100.0390625 C33.57070412 102.92500959 29.33442299 102.7714148 24.58203125 102.44921875 C19.40164095 100.75219434 16.03160325 98.68726434 12.58203125 94.44921875 C10.92584607 90.66365263 10.33983527 87.56655038 10.58203125 83.44921875 C9.92203125 83.44921875 9.26203125 83.44921875 8.58203125 83.44921875 C8.48921875 84.96515625 8.48921875 84.96515625 8.39453125 86.51171875 C7.715396 91.0454054 5.82799278 94.23515856 2.58203125 97.44921875 C-4.21244358 101.99259485 -11.3714861 103.16107188 -19.41796875 102.44921875 C-26.94318557 100.92852115 -32.04513973 98.77117938 -36.60546875 92.38671875 C-41.11845046 83.78099249 -40.62095344 73.88800683 -40.41796875 64.44921875 C-34.47796875 64.44921875 -28.53796875 64.44921875 -22.41796875 64.44921875 C-21.48046875 72.69921875 -21.48046875 72.69921875 -21.19165039 75.27832031 C-21.07358032 76.29877441 -21.07358032 76.29877441 -20.953125 77.33984375 C-20.87457275 78.03110352 -20.79602051 78.72236328 -20.71508789 79.43457031 C-20.41251892 81.48617188 -19.95384491 83.4470441 -19.41796875 85.44921875 C-15.35574844 85.83593741 -15.35574844 85.83593741 -11.74609375 84.29296875 C-8.91560661 80.3635866 -9.92405259 75.04734298 -10.41796875 70.44921875 C-12.49389007 61.67373318 -21.68160237 54.14178836 -28.66796875 48.94921875 C-35.50380771 42.7348197 -40.02578296 34.44094613 -40.62890625 25.2265625 C-40.86602643 16.69935614 -40.13865835 9.98370142 -35.73046875 2.63671875 C-26.55107962 -6.04648718 -10.30113234 -7.56862144 0 0 Z " fill="#5F4CC0" transform="translate(179.41796875,33.55078125)"/>
<path d="M0 0 C3.23031416 0.6124988 5.26136227 1.69844341 7.87890625 3.66796875 C8.62624023 4.22492432 9.37357422 4.78187988 10.14355469 5.35571289 C10.94180664 5.96020264 11.74005859 6.56469238 12.5625 7.1875 C14.26680577 8.46109986 15.97123659 9.73453238 17.67578125 11.0078125 C18.55186035 11.66555664 19.42793945 12.32330078 20.33056641 13.00097656 C24.61911983 16.21248886 28.93496827 19.38670833 33.25 22.5625 C34.02287354 23.13315186 34.79574707 23.70380371 35.59204102 24.29174805 C40.03340883 27.56834182 44.50037851 30.80384029 49 34 C44.1735794 39.96952022 38.77598476 44.95732992 33 50 C32.36320312 50.56332031 31.72640625 51.12664063 31.0703125 51.70703125 C25.02690291 57.03716289 18.88408742 62.25429 12.76123047 67.49267578 C9.83931262 69.9933579 6.91967973 72.49670547 4 75 C2.56737093 72.13474187 3.42523765 70.49400485 4.1796875 67.40625 C4.44910156 66.29378906 4.71851563 65.18132812 4.99609375 64.03515625 C5.28613281 62.86855469 5.57617188 61.70195313 5.875 60.5 C6.29845703 58.75009766 6.29845703 58.75009766 6.73046875 56.96484375 C8.84801942 48.30396117 8.84801942 48.30396117 10 46 C1.02611144 49.22776229 -6.97125235 52.31159171 -14 59 C-14.84111328 59.78117187 -14.84111328 59.78117187 -15.69921875 60.578125 C-23.51197245 68.6860709 -25.70458988 78.50513673 -25.5234375 89.41503906 C-24.97695157 101.35170854 -19.97903868 111.58412511 -11.25 119.75 C-2.67584597 126.78897217 7.43789265 130.54522572 18.546875 130.25390625 C31.18655259 128.94565937 41.35093949 124.30574844 50 115 C52.35934735 111.81488108 54.25341159 108.55475526 56 105 C56.3403125 104.31550781 56.680625 103.63101563 57.03125 102.92578125 C60.86800099 93.60034481 60.14902873 81.39621767 56.8671875 72.03515625 C56.10749096 70.25226481 55.21926601 68.52528024 54.3125 66.8125 C52.62665221 63.19996903 52.43615874 60.94688882 53 57 C54.9375 53.5625 54.9375 53.5625 58 51 C62.31437723 49.9779685 65.76994985 50.41293061 69.75 52.3125 C73.21241639 56.44816402 75.07535513 60.99327777 77 66 C77.32355469 66.80050781 77.64710937 67.60101563 77.98046875 68.42578125 C83.25367664 83.9483228 80.71873498 101.59707029 73.875 116.0625 C70.55237689 122.6683829 66.2786921 127.86022085 61 133 C60.40960938 133.62261719 59.81921875 134.24523437 59.2109375 134.88671875 C48.21100807 145.66858791 32.08385313 150.85624315 17 151.375 C1.92752631 150.93287411 -11.18228736 146.15921242 -23 137 C-23.71285156 136.4534375 -24.42570312 135.906875 -25.16015625 135.34375 C-36.35735908 126.1961315 -43.80537798 112.24018495 -46 98 C-47.63982516 78.75170662 -44.39445025 62.81588749 -32.3125 47.3125 C-22.29115607 36.47362538 -7.65347231 28.16198772 7 26 C8.32 26 9.64 26 11 26 C10.66677734 25.2479126 10.33355469 24.4958252 9.99023438 23.72094727 C8.49158999 20.33563536 6.99575834 16.94908799 5.5 13.5625 C4.97535156 12.37849609 4.45070312 11.19449219 3.91015625 9.97460938 C3.41386719 8.84990234 2.91757812 7.72519531 2.40625 6.56640625 C1.94541016 5.52427979 1.48457031 4.48215332 1.00976562 3.40844727 C0 1 0 1 0 0 Z " fill="#8FCF4F" transform="translate(46,1)"/>
<path d="M0 0 C0.66 2.97 1.32 5.94 2 9 C2.94875 8.071875 3.8975 7.14375 4.875 6.1875 C10.47412679 1.40279165 17.58652368 -0.62704444 24.9296875 -0.28515625 C32.1399811 0.70795966 37.98922614 2.63131372 43 8 C51.76831736 20.32951109 50.50068273 37.68703464 50.44604492 52.02172852 C50.43752574 55.42720875 50.46639576 58.83101216 50.49804688 62.23632812 C50.59647293 92.24737535 50.59647293 92.24737535 41.07421875 102.484375 C35.27673591 106.72057715 30.04783559 107.50234278 23.0625 107.4375 C22.30259766 107.45748047 21.54269531 107.47746094 20.75976562 107.49804688 C13.54748711 107.4918878 8.29038761 105.29038761 3.1875 100.1875 C-3.72214953 90.11915354 -4.31144228 78.77774361 -4.265625 66.8671875 C-4.26849518 65.19126022 -4.26849518 65.19126022 -4.27142334 63.48147583 C-4.27277521 61.13689954 -4.26914911 58.79231551 -4.26074219 56.44775391 C-4.25000829 52.87775769 -4.26068231 49.30826228 -4.2734375 45.73828125 C-4.27211612 43.44791557 -4.26955418 41.15755019 -4.265625 38.8671875 C-4.26967346 37.81071014 -4.27372192 36.75423279 -4.27789307 35.66574097 C-4.23903672 29.47212603 -3.5690044 23.99633905 -2 18 C-2.64235596 18.12463623 -3.28471191 18.24927246 -3.9465332 18.37768555 C-4.68605225 18.52117432 -5.42557129 18.66466309 -6.1875 18.8125 C-10.03294635 19.55863138 -12.93617634 20.50301858 -16 23 C-16.513012 25.81206121 -16.68163267 28.03484448 -16.64355469 30.85205078 C-16.6568708 32.04998764 -16.6568708 32.04998764 -16.67045593 33.27212524 C-16.69417073 35.9136085 -16.6829413 38.55376523 -16.671875 41.1953125 C-16.68244887 43.02710419 -16.69535795 44.85888377 -16.71051025 46.69064331 C-16.7447699 51.51379194 -16.75009094 56.33653629 -16.74859619 61.15979004 C-16.75181884 67.96686512 -16.79441808 74.77382692 -16.83233643 81.58078003 C-16.85242204 85.20772616 -16.86168724 88.83445682 -16.86248779 92.4614563 C-16.86630663 94.10988369 -16.87015046 95.75831102 -16.87402344 97.40673828 C-16.87192368 98.16519043 -16.86982391 98.92364258 -16.86766052 99.70507812 C-16.88699291 104.88699291 -16.88699291 104.88699291 -18 106 C-19.41570123 106.08651611 -20.835595 106.10704904 -22.25390625 106.09765625 C-23.10791016 106.09443359 -23.96191406 106.09121094 -24.84179688 106.08789062 C-25.73962891 106.07951172 -26.63746094 106.07113281 -27.5625 106.0625 C-28.46419922 106.05798828 -29.36589844 106.05347656 -30.29492188 106.04882812 C-32.53001634 106.03700223 -34.76496493 106.01968245 -37 106 C-38.28889501 95.72384131 -38.14565553 85.44107548 -38.1328125 75.10546875 C-38.13348729 73.18500252 -38.13445877 71.26453637 -38.13571167 69.34407043 C-38.13717863 65.33915384 -38.13506527 61.33425968 -38.13037109 57.3293457 C-38.12465505 52.20388868 -38.127971 47.07848382 -38.13394356 41.95302868 C-38.13755981 37.99560657 -38.13640601 34.0381968 -38.13381577 30.08077431 C-38.13315045 28.19058539 -38.13396107 26.30039534 -38.13629532 24.41020775 C-38.13884145 21.77108161 -38.13495447 19.1320398 -38.12939453 16.49291992 C-38.13141876 15.71825882 -38.13344299 14.94359772 -38.13552856 14.14546204 C-38.1190251 9.90589874 -37.70560649 6.23363896 -37 2 C-30.73 2 -24.46 2 -18 2 C-17.67 3.98 -17.34 5.96 -17 8 C-16.57589844 7.59007812 -16.15179688 7.18015625 -15.71484375 6.7578125 C-10.91109601 2.34469919 -6.73245049 0 0 0 Z M20 17 C17.57843582 21.28184081 16.62073714 24.36797784 16.59594727 29.27734375 C16.58326309 30.49881104 16.57057892 31.72027832 16.55751038 32.97875977 C16.56044601 34.28514404 16.56338165 35.59152832 16.56640625 36.9375 C16.5618398 38.30460875 16.55653285 39.6717152 16.55052185 41.03881836 C16.54161203 43.89674233 16.54398985 46.75438652 16.55395508 49.61230469 C16.56545161 53.2641328 16.54521354 56.91499489 16.51603794 60.56669617 C16.4976427 63.38755362 16.49797473 66.20818084 16.50367546 69.02908325 C16.50390216 71.0265007 16.48703963 73.02389662 16.46986389 75.02124023 C16.48328291 83.81743164 16.48328291 83.81743164 21 91 C23.94091587 90.81584568 23.94091587 90.81584568 27 90 C29.31308845 86.74437159 29.24798578 83.73035776 29.24291992 79.82617188 C29.24599655 78.57807739 29.24907318 77.32998291 29.25224304 76.04406738 C29.24534462 74.68562638 29.2380776 73.32718721 29.23046875 71.96875 C29.22927593 70.57157433 29.228824 69.17439784 29.2290802 67.77722168 C29.22751775 64.85191818 29.21924676 61.92673746 29.20581055 59.00146484 C29.18882111 55.25554857 29.1849964 51.50976713 29.18575573 47.76381683 C29.18548353 44.87960528 29.17999434 41.99542309 29.17275429 39.11122131 C29.16957676 37.73015057 29.16760235 36.34907652 29.16686058 34.96800232 C29.16468732 33.03659873 29.15513625 31.10520771 29.14526367 29.17382812 C29.14145187 28.07558716 29.13764008 26.97734619 29.13371277 25.8458252 C29.01826109 23.38865307 28.71241525 21.34240309 28 19 C27.34 19 26.68 19 26 19 C26 18.34 26 17.68 26 17 C24.02 17 22.04 17 20 17 Z " fill="#91CF4F" transform="translate(448,29)"/>
<path d="M0 0 C6.27 0 12.54 0 19 0 C19.33 7.26 19.66 14.52 20 22 C21.98 20.68 23.96 19.36 26 18 C32.27540508 16.4568676 37.24634388 16.9313834 43 20 C48.97262624 24.57035747 50.67531198 30.86135867 52 38 C52.40671294 43.05423047 52.42389297 48.09304562 52.3984375 53.16015625 C52.40046465 54.60021613 52.40338138 56.040275 52.40713501 57.48033142 C52.4115269 60.4799082 52.40522881 63.47921472 52.39111328 66.47875977 C52.37400741 70.29693352 52.38389102 74.11447502 52.40183067 77.93262577 C52.41274088 80.90031076 52.40918956 83.86784913 52.4014473 86.83553886 C52.39946601 88.2423555 52.40183048 89.64918606 52.40888596 91.0559864 C52.48788037 111.22216076 52.48788037 111.22216076 45.5 118.5625 C44.9121875 119.20316406 44.324375 119.84382813 43.71875 120.50390625 C39.81324472 123.90347108 34.86072614 123.32060279 29.9609375 123.296875 C25.44546374 122.84413621 23.18498549 121.18498549 20 118 C19.67 119.32 19.34 120.64 19 122 C12.73 122 6.46 122 0 122 C0 81.74 0 41.48 0 0 Z M20 36 C18.85987448 39.3044365 18.86131347 42.4847856 18.83886719 45.95849609 C18.82925964 47.16009369 18.8196521 48.36169128 18.80975342 49.59970093 C18.80550354 50.894534 18.80125366 52.18936707 18.796875 53.5234375 C18.7911182 54.87098186 18.78536054 56.21852621 18.77960205 57.56607056 C18.76911211 60.38877746 18.76325621 63.21145605 18.75976562 66.03417969 C18.7542824 69.64102626 18.73025004 73.24749507 18.70179367 76.85422325 C18.68311884 79.63728918 18.67795915 82.42026493 18.67642975 85.20338821 C18.67195327 87.17643866 18.65333255 89.14944074 18.63446045 91.12240601 C18.63746155 92.33030792 18.64046265 93.53820984 18.64355469 94.78271484 C18.63990906 95.8409848 18.63626343 96.89925476 18.63250732 97.98959351 C19.07077414 101.57976374 20.05180144 103.95929411 22 107 C25.59385054 107.97873538 25.59385054 107.97873538 29 108 C32.71334083 103.47941116 33.12243436 100.0113463 33.16113281 94.2409668 C33.17074036 93.0826384 33.1803479 91.92431 33.19024658 90.73088074 C33.19449646 89.48293228 33.19874634 88.23498383 33.203125 86.94921875 C33.21167511 85.01826103 33.21167511 85.01826103 33.22039795 83.04829407 C33.23088785 80.32394009 33.23674349 77.59961545 33.24023438 74.87524414 C33.24571176 71.39852583 33.26973156 67.92220057 33.29820633 64.44560528 C33.32140536 61.11348449 33.32328708 57.78141606 33.328125 54.44921875 C33.3466452 52.58640511 33.3466452 52.58640511 33.36553955 50.68595886 C33.5315568 41.12225637 33.5315568 41.12225637 29 33 C24.9657905 32.56386924 22.88772475 33.11227525 20 36 Z " fill="#5F4CC2" transform="translate(248,12)"/>
<path d="M0 0 C0.33 0 0.66 0 1 0 C1.33 22.77 1.66 45.54 2 69 C1.01 69 0.02 69 -1 69 C-1 68.34 -1 67.68 -1 67 C-2.4835001 67.42257276 -3.96176424 67.86356322 -5.4375 68.3125 C-6.26121094 68.55613281 -7.08492188 68.79976563 -7.93359375 69.05078125 C-8.61550781 69.36402344 -9.29742187 69.67726563 -10 70 C-10.33 70.99 -10.66 71.98 -11 73 C-10.34 73 -9.68 73 -9 73 C-9 74.32 -9 75.64 -9 77 C-3.43900876 80.21301716 0.28420636 80.18080177 6.53125 78.81640625 C9.51209952 77.83065063 11.19689578 76.57586318 13 74 C13 77 13 77 11.1875 79.125 C6.94046833 82.76531286 2.30487112 82.32275361 -3.0390625 82.296875 C-7.55453626 81.84413621 -9.81501451 80.18498549 -13 77 C-13.33 78.32 -13.66 79.64 -14 81 C-20.27 81 -26.54 81 -33 81 C-32.505 80.01 -32.505 80.01 -32 79 C-26.72 79.33 -21.44 79.66 -16 80 C-16.33 77.69 -16.66 75.38 -17 73 C-15.68628837 69.71572093 -14.72158121 68.39876856 -11.625 66.6875 C-8.95981317 65.98947488 -6.74175514 65.84332828 -4 66 C-0.30368295 59.32597468 -0.52649429 52.91186763 -0.48828125 45.41015625 C-0.47033005 44.11049423 -0.45237885 42.81083221 -0.43388367 41.4717865 C-0.38661283 38.03763816 -0.35665628 34.60355446 -0.33044434 31.16918945 C-0.30052214 27.65628296 -0.25403229 24.1435987 -0.20898438 20.63085938 C-0.1232128 13.75403338 -0.05575213 6.87713317 0 0 Z " fill="#5849A7" transform="translate(281,53)"/>
<path d="M0 0 C6.27 0 12.54 0 19 0 C19.33 7.26 19.66 14.52 20 22 C21.32 21.34 22.64 20.68 24 20 C22.68 22.31 21.36 24.62 20 27 C19.34 27 18.68 27 18 27 C17.10250178 23.9317362 16.88288232 21.20730024 16.90234375 18.015625 C16.90556641 17.08105469 16.90878906 16.14648438 16.91210938 15.18359375 C16.92048828 14.21550781 16.92886719 13.24742188 16.9375 12.25 C16.94201172 11.26644531 16.94652344 10.28289063 16.95117188 9.26953125 C16.962935 6.84632806 16.98086982 4.42315623 17 2 C11.72 1.67 6.44 1.34 1 1 C1 39.94 1 78.88 1 119 C0.67 119 0.34 119 0 119 C0 79.73 0 40.46 0 0 Z " fill="#5748A1" transform="translate(248,12)"/>
<path d="M0 0 C1.32 0.33 2.64 0.66 4 1 C3.67 1.33 3.34 1.66 3 2 C2.87499848 4.5244907 2.81396462 7.02299617 2.79467773 9.54907227 C2.78477814 10.33925751 2.77487854 11.12944275 2.76467896 11.943573 C2.73297152 14.56781978 2.70827021 17.19208469 2.68359375 19.81640625 C2.66303219 21.63102197 2.64203594 23.4456328 2.62062073 25.26023865 C2.56531759 30.0458482 2.5159448 34.83150156 2.46777344 39.6171875 C2.41761843 44.49678464 2.36190112 49.37631785 2.30664062 54.25585938 C2.19895832 63.83718502 2.09753587 73.41856608 2 83 C1.34 83 0.68 83 0 83 C0 55.61 0 28.22 0 0 Z " fill="#5A4CA5" transform="translate(223,31)"/>
<path d="M0 0 C0.99 0 1.98 0 3 0 C3 33.99 3 67.98 3 103 C-3.27 103 -9.54 103 -16 103 C-16 100.69 -16 98.38 -16 96 C-14.68 97.65 -13.36 99.3 -12 101 C-10.515 100.505 -10.515 100.505 -9 100 C-5.37 100.66 -1.74 101.32 2 102 C2 68.67 2 35.34 2 1 C1.34 0.67 0.68 0.34 0 0 Z " fill="#5848A7" transform="translate(239,31)"/>
<path d="M0 0 C1.98 0 3.96 0 6 0 C5.071875 0.3403125 5.071875 0.3403125 4.125 0.6875 C1.29053195 2.43820085 0.99581902 3.84661877 0 7 C-0.32409635 10.00866064 -0.32409635 10.00866064 -0.31884766 13.2590332 C-0.33871735 14.49994217 -0.35858704 15.74085114 -0.37905884 17.0193634 C-0.39093329 18.36316754 -0.40259626 19.70697357 -0.4140625 21.05078125 C-0.43278498 22.43370201 -0.4523592 23.81661147 -0.4727478 25.19950867 C-0.52396118 28.82766038 -0.56364431 32.45584909 -0.60089111 36.08416748 C-0.64099875 39.79122996 -0.69206015 43.49813999 -0.7421875 47.20507812 C-0.83881882 54.46994729 -0.92326413 61.73489055 -1 69 C-1.66 68.67 -2.32 68.34 -3 68 C-3.02316114 59.96801972 -3.04093436 51.93605338 -3.05181217 43.90404797 C-3.05703273 40.17454538 -3.0641154 36.44506562 -3.07543945 32.71557617 C-3.08629767 29.11702055 -3.09228308 25.5184869 -3.09487724 21.91991615 C-3.09672619 20.54638638 -3.10033666 19.17285782 -3.10573006 17.79933739 C-3.11297928 15.87689764 -3.11340839 13.95443583 -3.11352539 12.03198242 C-3.115746 10.93722092 -3.11796661 9.84245941 -3.12025452 8.71452332 C-3 6 -3 6 -2 3 C-1.34 3 -0.68 3 0 3 C0 2.01 0 1.02 0 0 Z " fill="#92B167" transform="translate(466,45)"/>
<path d="M0 0 C1.32 0.33 2.64 0.66 4 1 C3.01 1.66 2.02 2.32 1 3 C0.68372184 5.56975551 0.56257621 7.90445602 0.56762695 10.47900391 C0.5574353 11.24982803 0.54724365 12.02065216 0.53674316 12.81483459 C0.50649065 15.36881665 0.4973288 17.92242444 0.48828125 20.4765625 C0.4714436 22.24491637 0.45329461 24.0132582 0.43388367 25.78158569 C0.38627807 30.44059488 0.35653722 35.0995553 0.33044434 39.75872803 C0.30069189 44.51112506 0.25414343 49.26335381 0.20898438 54.015625 C0.12283126 63.34366217 0.05553958 72.67173386 0 82 C-0.66 81.67 -1.32 81.34 -2 81 C-2.04635898 71.17720447 -2.08188735 61.354435 -2.10362434 51.53155231 C-2.11405748 46.97029567 -2.12820815 42.40911393 -2.15087891 37.84790039 C-2.17262398 33.44533236 -2.18457217 29.04283633 -2.18975449 24.64021873 C-2.19344725 22.96131443 -2.20065828 21.28241403 -2.21146011 19.60354042 C-2.22599718 17.25033707 -2.22797702 14.89743055 -2.22705078 12.54418945 C-2.23424133 11.8515097 -2.24143188 11.15882996 -2.24884033 10.44515991 C-2.23214932 6.52121332 -1.71857602 3.5362935 0 0 Z " fill="#93BA66" transform="translate(431,49)"/>
<path d="M0 0 C0.33 0 0.66 0 1 0 C1.00808685 0.76341705 1.01617371 1.52683411 1.02450562 2.31338501 C1.10258155 9.52257479 1.18991096 16.73156596 1.28752708 23.94051552 C1.33738401 27.64634106 1.38371452 31.35213956 1.421875 35.05810547 C1.45886239 38.63736499 1.50525789 42.21639225 1.55806351 45.79545212 C1.57653625 47.15808394 1.59167026 48.52076541 1.60334396 49.88347244 C1.62032814 51.7982291 1.65049372 53.71285488 1.68115234 55.62744141 C1.69447601 56.71554108 1.70779968 57.80364075 1.7215271 58.92471313 C2.01865896 62.20605826 2.84180772 64.92544399 4 68 C3.34 68 2.68 68 2 68 C-0.76842232 64.32081533 -1.37263156 61.63056115 -1.35644531 57.07983398 C-1.35944641 55.91189804 -1.36244751 54.7439621 -1.36553955 53.54063416 C-1.35319275 52.28843582 -1.34084595 51.03623749 -1.328125 49.74609375 C-1.32625183 48.45308853 -1.32437866 47.16008331 -1.32244873 45.82789612 C-1.31785694 43.09680596 -1.30347438 40.36601252 -1.28125 37.63500977 C-1.25294054 34.13909644 -1.24203415 30.64341603 -1.2375679 27.14739895 C-1.23240609 23.80526149 -1.21786924 20.46320358 -1.203125 17.12109375 C-1.19887512 15.86687119 -1.19462524 14.61264862 -1.19024658 13.32041931 C-1.18063904 12.15563553 -1.17103149 10.99085175 -1.16113281 9.79077148 C-1.15430481 8.76660629 -1.14747681 7.7424411 -1.14044189 6.6872406 C-1.01571836 4.3007579 -0.68221144 2.28097187 0 0 Z " fill="#5A4BA5" transform="translate(266,51)"/>
<path d="M0 0 C1.09613591 3.28840772 0.83998108 3.8299344 0 7 C-0.0917471 8.81065591 -0.13002905 10.62452811 -0.125 12.4375 C-0.12757813 13.36433594 -0.13015625 14.29117188 -0.1328125 15.24609375 C-0.0021145 17.95615514 0.27145747 20.38554676 1 23 C1.66 23.33 2.32 23.66 3 24 C2.938125 24.86625 2.87625 25.7325 2.8125 26.625 C3.09978511 31.79613194 4.98217603 34.84825182 8.375 38.6875 C10.86702862 41.06078223 10.86702862 41.06078223 13.6875 42.4375 C16.75165321 44.50787379 17.14148605 46.48789749 18 50 C7.79000178 42.99885836 0.95239034 34.85717102 -3 23 C-3.14877911 20.4020878 -3.23103235 17.84856851 -3.25 15.25 C-3.270625 14.5590625 -3.29125 13.868125 -3.3125 13.15625 C-3.35088173 8.05147958 -2.27330153 4.57053254 0 0 Z " fill="#90B767" transform="translate(309,40)"/>
<path d="M0 0 C0.33 0 0.66 0 1 0 C1.01213028 1.48005272 1.01213028 1.48005272 1.02450562 2.99000549 C1.10209777 12.30325731 1.18986986 21.61636539 1.28752708 30.92942905 C1.33740482 35.71700218 1.38373551 40.50455416 1.421875 45.29223633 C1.45883559 49.9153691 1.50522454 54.53832115 1.55806351 59.16129875 C1.5765503 60.92223874 1.59167921 62.68321738 1.60334396 64.44421577 C1.62030459 66.91685491 1.64936247 69.38908529 1.68115234 71.86157227 C1.68331253 72.58446442 1.68547272 73.30735657 1.68769836 74.05215454 C1.76441723 78.74425558 2.55322517 82.58419455 4 87 C7.35458155 87.76522801 7.35458155 87.76522801 11 88 C12.87640419 86.79081118 12.87640419 86.79081118 14 85 C14.99 84.01 14.99 84.01 16 83 C15.6875 85.375 15.6875 85.375 15 88 C12.00261059 89.99825961 11.36652492 90.27550398 8 90.25 C7.319375 90.25515625 6.63875 90.2603125 5.9375 90.265625 C4 90 4 90 1 88 C-0.25048455 84.24854634 -0.13143947 80.76323916 -0.11352539 76.85668945 C-0.11367142 76.02719788 -0.11381744 75.1977063 -0.1139679 74.34307861 C-0.11327092 71.59978628 -0.10548853 68.85656173 -0.09765625 66.11328125 C-0.09579131 64.21184832 -0.09436776 62.31041491 -0.09336853 60.40898132 C-0.08954936 55.40305252 -0.07972416 50.3971527 -0.06866455 45.39123535 C-0.05843756 40.28361402 -0.05386815 35.175988 -0.04882812 30.06835938 C-0.03810138 20.04556018 -0.02103212 10.0227825 0 0 Z " fill="#594BA6" transform="translate(207,31)"/>
<path d="M0 0 C5.94 0 11.88 0 18 0 C18 3.96 18 7.92 18 12 C17.67 12 17.34 12 17 12 C17 8.37 17 4.74 17 1 C12.05 1 7.1 1 2 1 C1.96986806 14.19136646 1.96986806 14.19136646 6.16015625 26.46875 C7 28 7 28 7 30 C8.32 30 9.64 30 11 30 C12.75 32 12.75 32 14 34 C13.67 34.66 13.34 35.32 13 36 C6.8413375 32.56260698 3.2985946 28.31967738 1.24609375 21.4921875 C-0.24675044 14.33071119 -0.15679436 7.29093777 0 0 Z " fill="#584BA2" transform="translate(139,98)"/>
<path d="M0 0 C0.33 0 0.66 0 1 0 C1.06981514 8.43259227 1.12296998 16.86506178 1.15543652 25.29787254 C1.17102661 29.21447405 1.19214147 33.13087637 1.22631836 37.04736328 C1.25915161 40.8340002 1.27690294 44.62044672 1.28463173 48.40721512 C1.2901326 49.84476336 1.30087329 51.28230236 1.31719017 52.71976852 C1.40474335 60.7599325 1.40886102 68.5404849 -2 76 C-2.99 76.99 -2.99 76.99 -4 78 C-4 76.35 -4 74.7 -4 73 C-3.34 73 -2.68 73 -2 73 C-2.20625 72.113125 -2.4125 71.22625 -2.625 70.3125 C-3 67 -3 67 -2.04336548 64.68415833 C-0.82377061 61.54663289 -0.72223258 59.10269927 -0.68115234 55.7409668 C-0.66128265 54.50005783 -0.64141296 53.25914886 -0.62094116 51.9806366 C-0.60906671 50.63683246 -0.59740374 49.29302643 -0.5859375 47.94921875 C-0.56721502 46.56629799 -0.5476408 45.18338853 -0.5272522 43.80049133 C-0.47603882 40.17233962 -0.43635569 36.54415091 -0.39910889 32.91583252 C-0.35900125 29.20877004 -0.30793985 25.50186001 -0.2578125 21.79492188 C-0.16118118 14.53005271 -0.07673587 7.26510945 0 0 Z " fill="#5C4EA3" transform="translate(299,50)"/>
<path d="M0 0 C2.0625 2 2.0625 2 3 4 C2.6875 6.25 2.6875 6.25 2 8 C1.505 5.525 1.505 5.525 1 3 C0.34 3 -0.32 3 -1 3 C-1 2.34 -1 1.68 -1 1 C-6.17151777 -0.90529602 -11.52432023 -2.3204642 -17 -3 C-17.99 -2.505 -17.99 -2.505 -19 -2 C-21.33333333 -2 -23.66666667 -2 -26 -2 C-27.67557379 -1.71479595 -29.34817245 -1.40044304 -31 -1 C-31 -0.34 -31 0.32 -31 1 C-32.75 2.7265625 -32.75 2.7265625 -35 4.625 C-35.7425 5.25664063 -36.485 5.88828125 -37.25 6.5390625 C-37.8275 7.02117188 -38.405 7.50328125 -39 8 C-39.33 7.34 -39.66 6.68 -40 6 C-35.74051353 0.14320611 -31.29582606 -3.0714904 -24.14453125 -4.6171875 C-15.77448061 -5.63615019 -6.99274395 -5.06124434 0 0 Z " fill="#97C363" transform="translate(400,34)"/>
<path d="M0 0 C0.103125 0.61875 0.20625 1.2375 0.3125 1.875 C0.87525373 4.36526484 0.87525373 4.36526484 4 6 C4 6.66 4 7.32 4 8 C13.26014667 9.72411139 22.44995918 10.35002077 31 6 C33.15693906 4.44143758 35.03981604 2.81317016 37 1 C37 1.99 37 2.98 37 4 C30.78077331 9.92996034 25.65303213 11.36101894 17.1875 11.375 C16.41857422 11.39949219 15.64964844 11.42398438 14.85742188 11.44921875 C7.89482786 11.48447239 2.79330673 9.37431072 -2.5 4.875 C-4 3 -4 3 -4 1 C-2 0 -2 0 0 0 Z " fill="#98C466" transform="translate(365,125)"/>
<path d="M0 0 C0.33 0 0.66 0 1 0 C1.07476562 1.16015625 1.14953125 2.3203125 1.2265625 3.515625 C1.97037455 12.99313187 2.82977119 22.28721399 9 30 C10.98496737 31.02951666 12.98374648 32.03318991 15 33 C15.33 33.99 15.66 34.98 16 36 C10.05868753 34.72686161 7.32600008 31.82615442 4 27 C-0.62137191 18.41745216 -1.55520569 9.48675473 0 0 Z " fill="#9AC366" transform="translate(445,99)"/>
<path d="M0 0 C0.66 0 1.32 0 2 0 C2.9417109 5.49576595 3.09074896 10.74505118 3 16.3125 C2.64054782 21.81918346 2.64054782 21.81918346 4 27 C3.34 27 2.68 27 2 27 C2 28.65 2 30.3 2 32 C-0.42204038 28.36693942 -0.23302891 26.68180977 -0.1953125 22.36328125 C-0.18886719 21.06455078 -0.18242187 19.76582031 -0.17578125 18.42773438 C-0.1590706 17.05598693 -0.14214071 15.68424214 -0.125 14.3125 C-0.11496674 12.92904282 -0.10584149 11.54557873 -0.09765625 10.16210938 C-0.07404967 6.77456548 -0.04112037 3.38736928 0 0 Z " fill="#98C665" transform="translate(355,66)"/>
<path d="M0 0 C3 2 3 2 3.73046875 4.3828125 C3.88128906 5.28773437 4.03210938 6.19265625 4.1875 7.125 C4.34605469 8.03507812 4.50460938 8.94515625 4.66796875 9.8828125 C4.77753906 10.58148438 4.88710937 11.28015625 5 12 C5.66 12 6.32 12 7 12 C7.66 13.98 8.32 15.96 9 18 C4.78093035 15.11326813 3.12342277 13.00433778 2 8 C1.875 5.125 1.875 5.125 2 3 C1.34 3 0.68 3 0 3 C-0.1546875 4.6396875 -0.1546875 4.6396875 -0.3125 6.3125 C-0.97307727 9.85559629 -1.2027092 10.93243723 -4 13 C-4 10.14953727 -3.55621634 7.7810817 -3 5 C-3 4.01 -3 3.02 -3 2 C-2.01 1.34 -1.02 0.68 0 0 Z " fill="#5848AD" transform="translate(188,114)"/>
<path d="M0 0 C2.64 0 5.28 0 8 0 C8.63146072 4.02556211 9.24001982 7.91966314 9 12 C8.67 12.33 8.34 12.66 8 13 C7.72046781 15.0587768 7.55265649 17.11728432 7.37890625 19.1875 C7.25386719 19.785625 7.12882812 20.38375 7 21 C6.34 21.33 5.68 21.66 5 22 C4.76331431 14.96517526 5.2120463 8.8165735 7 2 C4.69 2.33 2.38 2.66 0 3 C0 2.01 0 1.02 0 0 Z " fill="#94C265" transform="translate(439,45)"/>
<path d="M0 0 C0.66 0.66 1.32 1.32 2 2 C-3.51787538 7.81613892 -3.51787538 7.81613892 -8.7421875 8.203125 C-9.77601563 8.21859375 -10.80984375 8.2340625 -11.875 8.25 C-13.41800781 8.28867188 -13.41800781 8.28867188 -14.9921875 8.328125 C-18.3748189 7.95911067 -20.23935854 6.93550508 -23 5 C-20.35723999 4.0212 -19.33760126 3.85046622 -16.70703125 5.015625 C-13.51159386 6.17760223 -11.69524595 5.98782777 -8.375 5.375 C-6.96347656 5.13910156 -6.96347656 5.13910156 -5.5234375 4.8984375 C-2.54224178 3.83702107 -1.6197193 2.66329684 0 0 Z " fill="#5547A4" transform="translate(293,127)"/>
<path d="M0 0 C3.47842253 0.05601325 4.34711316 0.15811271 7.1875 2.375 C7.661875 3.035 8.13625 3.695 8.625 4.375 C6.975 4.375 5.325 4.375 3.625 4.375 C4.285 5.035 4.945 5.695 5.625 6.375 C4.635 6.87 4.635 6.87 3.625 7.375 C1.59087579 6.44637808 -0.40747172 5.43746527 -2.375 4.375 C-3.15875 3.983125 -3.9425 3.59125 -4.75 3.1875 C-5.28625 2.919375 -5.8225 2.65125 -6.375 2.375 C-3.98213116 -0.01786884 -3.28052906 0.05449384 0 0 Z " fill="#94C958" transform="translate(108.375,51.625)"/>
<path d="M0 0 C3.68954546 1.22984849 3.35620309 1.71240619 5 5 C7.4268982 7.68926557 9.48434793 9.7241861 12.6875 11.4375 C15.75165321 13.50787379 16.14148605 15.48789749 17 19 C10.03400426 14.22331721 2.38852573 8.49253593 0 0 Z " fill="#9AC76A" transform="translate(310,71)"/>
<path d="M0 0 C0.54398438 0.28875 1.08796875 0.5775 1.6484375 0.875 C5.16918367 2.55934368 8.85106162 3.73441257 12.5390625 5 C15.7362159 6.29916075 17.59282887 8.59282887 20 11 C19.01 11.495 19.01 11.495 18 12 C11.34716646 9.35081778 5.14598243 6.00303847 0 1 C0 0.67 0 0.34 0 0 Z " fill="#95C760" transform="translate(22,136)"/>
<path d="M0 0 C0.33 0 0.66 0 1 0 C1.87890625 6.15234375 1.87890625 6.15234375 2 8 C1.67 8.33 1.34 8.66 1 9 C0.76321284 11.69235776 0.57801975 14.36498156 0.4375 17.0625 C0.39431641 17.82111328 0.35113281 18.57972656 0.30664062 19.36132812 C0.20026367 21.24065438 0.09960066 23.12030244 0 25 C-3.59280724 19.25435985 -2.72795374 10.97236825 -1.546875 4.52734375 C-1 2.625 -1 2.625 0 0 Z " fill="#5A4CA6" transform="translate(141,41)"/>
<path d="M0 0 C0 3.52032428 -0.70351351 4.4385343 -3 7 C-3.66 7 -4.32 7 -5 7 C-5.33 7.99 -5.66 8.98 -6 10 C-10.33178248 12.20835969 -14.14254615 13.40762758 -19 14 C-16.31910425 11.89531488 -13.65698764 10.23540948 -10.625 8.6875 C-6.28472053 6.33442286 -3.3070452 3.64622933 0 0 Z " fill="#95C75D" transform="translate(96,116)"/>
<path d="M0 0 C0.33 0 0.66 0 1 0 C1.97476628 5.29553881 1.92635953 9.80722185 1.1875 15.125 C1.10435547 15.81464844 1.02121094 16.50429687 0.93554688 17.21484375 C0.428997 21.0823705 -0.36559306 24.45533685 -2 28 C-2.93826619 24.93312991 -3.01788333 22.54992204 -2.625 19.375 C-2.53476562 18.59898438 -2.44453125 17.82296875 -2.3515625 17.0234375 C-2 15 -2 15 -1 13 C-0.77049681 10.795636 -0.58924067 8.58607827 -0.4375 6.375 C-0.31181641 4.59222656 -0.31181641 4.59222656 -0.18359375 2.7734375 C-0.12300781 1.85820313 -0.06242187 0.94296875 0 0 Z " fill="#9BC465" transform="translate(407,96)"/>
<path d="M0 0 C1.30049353 3.9014806 1.01952539 7.567204 0.9375 11.625 C0.86050253 18.06583829 1.15624743 23.77733509 3 30 C1.68 29.67 0.36 29.34 -1 29 C-1.02465881 25.03069011 -1.04284023 21.06140966 -1.05493164 17.09204102 C-1.05997057 15.74079614 -1.06680177 14.38955674 -1.07543945 13.03833008 C-1.08752419 11.09979566 -1.09269828 9.161222 -1.09765625 7.22265625 C-1.10289307 6.05484619 -1.10812988 4.88703613 -1.11352539 3.68383789 C-1 1 -1 1 0 0 Z " fill="#94C563" transform="translate(20,76)"/>
<path d="M0 0 C6.87014167 3.59121042 12.87384845 8.29221851 19 13 C17 14 17 14 14.6875 13.375 C11.45311863 11.72020023 9.53587928 9.59625735 7 7 C5.74458607 6.08268294 4.47319223 5.18687419 3.1875 4.3125 C2.135625 3.549375 1.08375 2.78625 0 2 C0 1.34 0 0.68 0 0 Z " fill="#93C260" transform="translate(58,9)"/>
<path d="M0 0 C0.33 0 0.66 0 1 0 C1.33 5.94 1.66 11.88 2 18 C2.66 18 3.32 18 4 18 C4.99 18 5.98 18 7 18 C5.7260411 20.03833424 4.38938077 22.03852126 3 24 C2.34 24 1.68 24 1 24 C0.13036913 21.00293305 -0.11763099 18.35043474 -0.09765625 15.234375 C-0.09443359 14.34492188 -0.09121094 13.45546875 -0.08789062 12.5390625 C-0.07532227 11.15847656 -0.07532227 11.15847656 -0.0625 9.75 C-0.05798828 8.81414063 -0.05347656 7.87828125 -0.04882812 6.9140625 C-0.03706918 4.60930959 -0.02063426 2.30468773 0 0 Z " fill="#5A4AAF" transform="translate(265,15)"/>
<path d="M0 0 C3.81041134 0.95260283 5.26914026 1.7274932 8.25 4.0625 C8.95640625 4.61035156 9.6628125 5.15820312 10.390625 5.72265625 C11.18726563 6.35494141 11.18726563 6.35494141 12 7 C9 8 9 8 6.8125 7.0625 C6.214375 6.711875 5.61625 6.36125 5 6 C4.67 7.32 4.34 8.64 4 10 C2.68 6.7 1.36 3.4 0 0 Z " fill="#96C163" transform="translate(46,1)"/>
<path d="M0 0 C-7.43659188 2.01670288 -14.31604457 2.2137731 -22 2 C-22.33 2.99 -22.66 3.98 -23 5 C-23.66 4.67 -24.32 4.34 -25 4 C-24.67 2.68 -24.34 1.36 -24 0 C-22.58847656 0.01740234 -22.58847656 0.01740234 -21.1484375 0.03515625 C-19.28058594 0.04869141 -19.28058594 0.04869141 -17.375 0.0625 C-16.14523438 0.07410156 -14.91546875 0.08570313 -13.6484375 0.09765625 C-10.05581799 0.09113017 -10.05581799 0.09113017 -6.7890625 -0.56640625 C-4.08919972 -0.98613282 -2.54836712 -0.88212708 0 0 Z " fill="#95C85C" transform="translate(77,131)"/>
<path d="M0 0 C2.77643441 2.35996925 4.31420364 5.12962594 6.03515625 8.28125 C7.84271043 11.80469669 7.84271043 11.80469669 11.125 13.6875 C12.053125 13.8421875 12.053125 13.8421875 13 14 C13 15.32 13 16.64 13 18 C9.03760967 16.4773736 7.26230056 14.0841278 4.8125 10.6875 C4.11769531 9.74261719 3.42289063 8.79773438 2.70703125 7.82421875 C1.05635857 5.09324313 0.3829544 3.13793981 0 0 Z " fill="#574AA6" transform="translate(141,66)"/>
<path d="M0 0 C0.33 0 0.66 0 1 0 C1.37851209 5.93002267 0.10575375 10.47239641 -2 16 C-3.76462683 12.91190305 -4 11.76687864 -4 8 C-3.34 7.67 -2.68 7.34 -2 7 C-1.26924352 4.6859378 -0.59861742 2.35171131 0 0 Z " fill="#92C35D" transform="translate(496,108)"/>
<path d="M0 0 C0.33 0.99 0.66 1.98 1 3 C-0.32 3 -1.64 3 -3 3 C-3 3.66 -3 4.32 -3 5 C-4.423125 5.928125 -4.423125 5.928125 -5.875 6.875 C-8.82241872 8.87924473 -9.83853833 9.74790731 -11 13 C-11.66 13 -12.32 13 -13 13 C-12.44846785 9.26275228 -11.03850239 7.7764009 -8.1875 5.375 C-7.50042969 4.78460938 -6.81335938 4.19421875 -6.10546875 3.5859375 C-4.13394577 2.10089421 -2.24176008 1.01760794 0 0 Z " fill="#93C65E" transform="translate(31,35)"/>
<path d="M0 0 C0.33 0 0.66 0 1 0 C0.67 3.3 0.34 6.6 0 10 C0.66 10 1.32 10 2 10 C2 9.34 2 8.68 2 8 C2.99 8.33 3.98 8.66 5 9 C2.69 10.98 0.38 12.96 -2 15 C-3.53760842 11.92478317 -2.36599236 9.65324882 -1.5625 6.375 C-1.27503906 5.18648438 -0.98757812 3.99796875 -0.69140625 2.7734375 C-0.46324219 1.85820313 -0.23507813 0.94296875 0 0 Z " fill="#94C064" transform="translate(52,61)"/>
<path d="M0 0 C0.33 0 0.66 0 1 0 C1.33 2.97 1.66 5.94 2 9 C1.01 9 0.02 9 -1 9 C-1 8.34 -1 7.68 -1 7 C-1.99 7.495 -1.99 7.495 -3 8 C-5.6723621 8.13415472 -8.32250488 8.04318541 -11 8 C-11 7.34 -11 6.68 -11 6 C-9.3603125 6.061875 -9.3603125 6.061875 -7.6875 6.125 C-3.91107771 6.32074666 -3.91107771 6.32074666 -1 4 C-0.27617533 1.94074861 -0.27617533 1.94074861 0 0 Z " fill="#5A4AAF" transform="translate(281,113)"/>
<path d="M0 0 C0.33 0 0.66 0 1 0 C1.185625 1.2065625 1.185625 1.2065625 1.375 2.4375 C1.58125 3.283125 1.7875 4.12875 2 5 C2.66 5.33 3.32 5.66 4 6 C4 8.64 4 11.28 4 14 C3.01 13.67 2.02 13.34 1 13 C-0.85026394 8.28182696 -1.19884975 4.91528399 0 0 Z " fill="#90C55F" transform="translate(308,58)"/>
<path d="M0 0 C0.66 0 1.32 0 2 0 C2.13277344 1.04800781 2.26554687 2.09601562 2.40234375 3.17578125 C2.58057235 4.55470778 2.75896641 5.93361293 2.9375 7.3125 C3.02451172 8.00279297 3.11152344 8.69308594 3.20117188 9.40429688 C3.59210135 12.40142288 4.0415004 15.12450119 5 18 C5.66 18.33 6.32 18.66 7 19 C5.35 18.67 3.7 18.34 2 18 C1.93941406 17.11957031 1.87882812 16.23914063 1.81640625 15.33203125 C1.73261719 14.17058594 1.64882813 13.00914063 1.5625 11.8125 C1.48128906 10.66394531 1.40007812 9.51539063 1.31640625 8.33203125 C1.04596188 5.48401829 0.62478253 2.78789518 0 0 Z " fill="#93BC65" transform="translate(335,47)"/>
<path d="M0 0 C-0.75 1.9375 -0.75 1.9375 -2 4 C-3.33333333 4.33333333 -4.66666667 4.66666667 -6 5 C-7.28436734 6.9837767 -7.28436734 6.9837767 -8 9 C-8.99 8.34 -9.98 7.68 -11 7 C-9.87720538 6.01830524 -8.75168527 5.03972702 -7.625 4.0625 C-6.68527344 3.24458984 -6.68527344 3.24458984 -5.7265625 2.41015625 C-3.71547429 0.76761588 -2.62199195 0 0 0 Z " fill="#95C563" transform="translate(461,31)"/>
<path d="M0 0 C-2.5323544 1.31682429 -5.01791294 2.39681352 -7.6875 3.4375 C-8.780625 3.953125 -9.87375 4.46875 -11 5 C-11.33 5.99 -11.66 6.98 -12 8 C-14.5625 9.1875 -14.5625 9.1875 -17 10 C-15.16586358 5.3312891 -11.90594752 2.95297376 -7.5 0.75 C-4.86789896 -0.03963031 -2.7321625 -0.15612357 0 0 Z " fill="#94C363" transform="translate(327,30)"/>
<path d="M0 0 C1.32 0 2.64 0 4 0 C4.66 1.65 5.32 3.3 6 5 C6.66 5 7.32 5 8 5 C8 6.65 8 8.3 8 10 C7.731875 9.360625 7.46375 8.72125 7.1875 8.0625 C6.11332248 5.66868314 6.11332248 5.66868314 3 5 C2.01 4.34 1.02 3.68 0 3 C0 2.01 0 1.02 0 0 Z " fill="#92C75A" transform="translate(380,40)"/>
<path d="M0 0 C0.66 0 1.32 0 2 0 C2.33 1.32 2.66 2.64 3 4 C4.32 3.34 5.64 2.68 7 2 C6.67 5.3 6.34 8.6 6 12 C2.89083741 7.85444988 1.68437364 4.81249612 0 0 Z " fill="#95C85C" transform="translate(51,12)"/>
<path d="M0 0 C0.66 0.66 1.32 1.32 2 2 C4.52166109 2.1723963 6.91953713 2.23250592 9.4375 2.1875 C10.11876953 2.18685547 10.80003906 2.18621094 11.50195312 2.18554688 C14.59597947 2.15827338 17.04530673 1.98489776 20 1 C19.67 1.99 19.34 2.98 19 4 C12.73 4 6.46 4 0 4 C0 2.68 0 1.36 0 0 Z " fill="#97B66D" transform="translate(411,131)"/>
<path d="M0 0 C-2.65654657 3.73884332 -4.58110387 5.64978174 -9 7 C-7.53913043 1.4 -7.53913043 1.4 -5.0625 -0.4375 C-3 -1 -3 -1 0 0 Z " fill="#95C95B" transform="translate(353,127)"/>
<path d="M0 0 C3.03393954 3.46735947 4.9351577 7.52949826 6 12 C5.67 12.99 5.34 13.98 5 15 C1.65405342 9.81917949 0.43173504 6.15222436 0 0 Z " fill="#99C06C" transform="translate(307,114)"/>
<path d="M0 0 C1.57145895 2.44828749 2.06462081 3.58513442 1.609375 6.5078125 C1.32578125 7.37148437 1.0421875 8.23515625 0.75 9.125 C0.47671875 9.99382812 0.2034375 10.86265625 -0.078125 11.7578125 C-1 14 -1 14 -3 16 C-3 14.35 -3 12.7 -3 11 C-2.34 11 -1.68 11 -1 11 C-1.20625 10.113125 -1.4125 9.22625 -1.625 8.3125 C-2.02550239 4.7747289 -1.56683516 3.13367033 0 0 Z " fill="#5043AE" transform="translate(298,112)"/>
<path d="M0 0 C0.33 0 0.66 0 1 0 C1.33 3.3 1.66 6.6 2 10 C1.01 10.33 0.02 10.66 -1 11 C-1.33 11.99 -1.66 12.98 -2 14 C-1.85970581 11.8537974 -1.71261836 9.70803782 -1.5625 7.5625 C-1.48128906 6.36753906 -1.40007812 5.17257813 -1.31640625 3.94140625 C-1 1 -1 1 0 0 Z " fill="#94C263" transform="translate(478,106)"/>
<path d="M0 0 C2.475 0.99 2.475 0.99 5 2 C5 5 5 5 3.6875 6.60546875 C3.130625 7.12753906 2.57375 7.64960937 2 8.1875 C1.443125 8.71730469 0.88625 9.24710938 0.3125 9.79296875 C-0.120625 10.19128906 -0.55375 10.58960938 -1 11 C-1.66 10.67 -2.32 10.34 -3 10 C-1.35 8.35 0.3 6.7 2 5 C1.67 4.34 1.34 3.68 1 3 C0.67 2.01 0.34 1.02 0 0 Z " fill="#93C15E" transform="translate(89,32)"/>
<path d="M0 0 C0.515625 0.680625 1.03125 1.36125 1.5625 2.0625 C4.50071413 5.60342473 7.70787019 8.79109819 11 12 C7.02945403 12 5.83528756 10.6860619 3 8 C2.1875 5.75 2.1875 5.75 2 4 C1.34 4 0.68 4 0 4 C0 2.68 0 1.36 0 0 Z " fill="#95C365" transform="translate(25,110)"/>
<path d="M0 0 C2.5 1.5 2.5 1.5 5 4 C5.45442324 6.80138565 5.23849927 9.13800875 5 12 C1.94063363 8.24532309 0 4.91886939 0 0 Z " fill="#95C85B" transform="translate(2,105)"/>
<path d="M0 0 C-1.98 1.98 -3.96 3.96 -6 6 C-6.99 5.67 -7.98 5.34 -9 5 C-8.875 3.125 -8.875 3.125 -8 1 C-2.71910112 -1.35955056 -2.71910112 -1.35955056 0 0 Z " fill="#92C65C" transform="translate(68,60)"/>
<path d="M0 0 C0.4125 0.804375 0.825 1.60875 1.25 2.4375 C5.52154323 6.41780165 10.35389564 5.90234725 16 6 C16 6.33 16 6.66 16 7 C13.70890403 7.08075665 11.41700733 7.13907731 9.125 7.1875 C7.21074219 7.23970703 7.21074219 7.23970703 5.2578125 7.29296875 C4.18273437 7.19628906 3.10765625 7.09960938 2 7 C0 4 0 4 0 0 Z " fill="#98CC5E" transform="translate(411,127)"/>
<path d="M0 0 C2.86697492 1.28519565 4.97607712 2.57129254 7 5 C7 5.66 7 6.32 7 7 C5.35 6.67 3.7 6.34 2 6 C1.34 4.02 0.68 2.04 0 0 Z " fill="#5A4BAE" transform="translate(289,32)"/>
<path d="M0 0 C3 3.625 3 3.625 3 7 C3.66 7 4.32 7 5 7 C5.66 8.98 6.32 10.96 7 13 C4.1615855 11.28201227 2.31847379 9.92981544 1.22265625 6.73046875 C0.73966721 4.49179691 0.32451767 2.26678014 0 0 Z " fill="#5B4DA2" transform="translate(190,119)"/>
<path d="M0 0 C3.96 0 7.92 0 12 0 C12 0.99 12 1.98 12 3 C8.7 2.34 5.4 1.68 2 1 C1.67 1.99 1.34 2.98 1 4 C0.67 2.68 0.34 1.36 0 0 Z " fill="#93C858" transform="translate(464,44)"/>
<path d="M0 0 C0.66 0.33 1.32 0.66 2 1 C-0.0586217 4.08793255 -0.8553312 4.47838607 -4 6 C-4.33 6.66 -4.66 7.32 -5 8 C-5.66 8 -6.32 8 -7 8 C-5.50902342 4.2047869 -3.24299151 2.38957269 0 0 Z " fill="#95C263" transform="translate(438,31)"/>
<path d="M0 0 C-0.99 1.485 -0.99 1.485 -2 3 C-4.64 2.67 -7.28 2.34 -10 2 C-6.80505194 -1.19494806 -4.22040044 -1.35655728 0 0 Z " fill="#96C75C" transform="translate(52,29)"/>
<path d="M0 0 C0.625 1.8125 0.625 1.8125 1 4 C0.01 5.485 0.01 5.485 -1 7 C-2.5 5.625 -2.5 5.625 -4 4 C-4 3.34 -4 2.68 -4 2 C-2.68 1.34 -1.36 0.68 0 0 Z " fill="#93CA58" transform="translate(15,122)"/>
<path d="M0 0 C1.32 0.33 2.64 0.66 4 1 C3.34 1 2.68 1 2 1 C1.67 2.65 1.34 4.3 1 6 C-0.32 6 -1.64 6 -3 6 C-2.67 4.68 -2.34 3.36 -2 2 C-1.34 2 -0.68 2 0 2 C0 1.34 0 0.68 0 0 Z " fill="#93D346" transform="translate(86,38)"/>
<path d="M0 0 C2.475 0.99 2.475 0.99 5 2 C3.75 3.5625 3.75 3.5625 2 5 C-0.1875 4.6875 -0.1875 4.6875 -2 4 C-1.34 2.68 -0.68 1.36 0 0 Z " fill="#93CC5E" transform="translate(36,123)"/>
<path d="M0 0 C1.32 0 2.64 0 4 0 C5.35439668 2.70879335 5.06501451 5.00933268 5 8 C2.98863724 5.44008376 1.37154504 2.95409701 0 0 Z " fill="#98C760" transform="translate(356,118)"/>
<path d="M0 0 C0.33 0 0.66 0 1 0 C1.13277344 0.61488281 1.26554687 1.22976562 1.40234375 1.86328125 C1.57894531 2.67152344 1.75554687 3.47976562 1.9375 4.3125 C2.19853516 5.51326172 2.19853516 5.51326172 2.46484375 6.73828125 C2.99886159 9.145401 2.99886159 9.145401 4 12 C3.34 12 2.68 12 2 12 C-0.62248477 8.79474083 -1.03113289 7.37982123 -0.6875 3.1875 C-0.460625 2.135625 -0.23375 1.08375 0 0 Z " fill="#5648A3" transform="translate(266,107)"/>
<path d="M0 0 C1.32 0.33 2.64 0.66 4 1 C3.01 1.66 2.02 2.32 1 3 C0.20562077 5.18505129 0.20562077 5.18505129 -0.1875 7.625 C-0.34605469 8.44226562 -0.50460937 9.25953125 -0.66796875 10.1015625 C-0.77753906 10.72804688 -0.88710938 11.35453125 -1 12 C-1.33 12 -1.66 12 -2 12 C-2.17835515 7.45194365 -1.99785435 4.1205746 0 0 Z " fill="#90BB65" transform="translate(377,45)"/>
<path d="M0 0 C2.39763185 2.39763185 2.34280586 3.33273498 2.625 6.625 C2.69976562 7.44226562 2.77453125 8.25953125 2.8515625 9.1015625 C2.90054687 9.72804688 2.94953125 10.35453125 3 11 C1.03553095 9.3655205 0.07682209 8.53570606 -0.29296875 5.95703125 C-0.1953125 3.97135417 -0.09765625 1.98567708 0 0 Z " fill="#5C4EA9" transform="translate(296,39)"/>
<path d="M0 0 C0.66 0 1.32 0 2 0 C1.67 1.98 1.34 3.96 1 6 C0.01 6 -0.98 6 -2 6 C-1.125 1.125 -1.125 1.125 0 0 Z " fill="#9ACE49" transform="translate(324,111)"/>
<path d="M0 0 C0.66 0.33 1.32 0.66 2 1 C-0.625 5.875 -0.625 5.875 -4 7 C-2.92598892 4.08482708 -2.22189824 2.22189824 0 0 Z " fill="#5A49AB" transform="translate(146,34)"/>
</svg>
