<?xml version="1.0" standalone="no"?>
<!DOCTYPE svg PUBLIC "-//W3C//DTD SVG 20010904//EN"
 "http://www.w3.org/TR/2001/REC-SVG-20010904/DTD/svg10.dtd">
<svg version="1.0" xmlns="http://www.w3.org/2000/svg"
 width="500.000000pt" height="170.000000pt" viewBox="0 0 500.000000 170.000000"
 preserveAspectRatio="xMidYMid meet">

<g transform="translate(0.000000,170.000000) scale(0.100000,-0.100000)"
fill="#000000" stroke="none">
<path d="M1540 835 l0 -835 125 0 125 0 0 68 1 67 16 -30 c42 -80 86 -105 188
-105 91 0 132 16 171 67 75 99 87 196 81 695 -4 409 -8 454 -51 538 -37 72
-81 104 -166 120 -80 15 -143 -3 -196 -56 l-44 -43 0 174 0 175 -125 0 -125 0
0 -835z m419 376 c11 -11 24 -37 30 -58 13 -47 14 -831 1 -887 -12 -55 -41
-81 -89 -81 -55 0 -87 33 -101 100 -7 35 -10 191 -8 457 3 435 4 444 57 473
38 20 88 18 110 -4z"/>
<path d="M305 1420 c-140 -21 -218 -100 -245 -251 -22 -118 6 -249 74 -352 19
-29 90 -105 158 -168 153 -144 180 -188 186 -305 5 -94 -10 -134 -57 -154 -38
-15 -78 -3 -105 33 -17 23 -21 48 -26 144 l-5 116 -110 -1 -110 -1 0 -118 c1
-181 43 -282 143 -336 47 -26 57 -27 183 -27 151 0 189 12 246 71 55 58 76
120 81 241 4 89 1 118 -17 176 -32 105 -101 200 -242 332 -142 133 -172 183
-172 282 0 72 23 109 77 122 30 8 41 6 63 -10 38 -29 51 -76 52 -182 l1 -93
110 2 110 3 0 77 c0 90 -22 213 -46 261 -39 78 -103 121 -205 138 -70 11 -72
11 -144 0z"/>
<path d="M742 808 c4 -651 4 -652 59 -732 43 -64 74 -76 186 -76 96 0 103 2
134 27 18 15 45 48 61 72 l28 45 0 -72 0 -72 120 0 120 0 0 705 0 705 -120 0
-119 0 -3 -567 c-3 -552 -4 -569 -23 -603 -37 -63 -128 -72 -169 -17 -21 28
-21 38 -24 608 l-2 579 -126 0 -125 0 3 -602z"/>
</g>
</svg>
